<svg xmlns="http://www.w3.org/2000/svg" xmlns:xlink="http://www.w3.org/1999/xlink" viewBox="0 0 799.06 357"><defs><style>.cls-1,.cls-17,.cls-5{fill:none;}.cls-2{fill:#e5d1c3;}.cls-3{fill:#c9efff;}.cls-4{clip-path:url(#clip-path);}.cls-5{stroke:#000;stroke-width:0.69px;}.cls-17,.cls-5{stroke-miterlimit:10;}.cls-6{fill:#e41e00;}.cls-7{fill:#de7fff;}.cls-8{fill:#76ce51;}.cls-9{fill:#8bae00;}.cls-10{fill:#78a0ff;}.cls-11{fill:#ffa93c;}.cls-12{fill:#ffd71a;}.cls-13{clip-path:url(#clip-path-4);}.cls-14{fill:#e0bf99;}.cls-15{fill:#efd5bb;}.cls-16{fill:#af855b;}.cls-17{stroke:#0d0000;stroke-width:0.74px;}.cls-18{fill:#fff;}.cls-19{fill:#7fd4ff;}.cls-20{fill:#0d0000;}.cls-21{clip-path:url(#clip-path-10);}</style><clipPath id="clip-path" transform="translate(3)"><rect class="cls-1" x="-3" y="-37" width="407.06" height="580"/></clipPath><clipPath id="clip-path-4" transform="translate(3)"><rect class="cls-1" x="102.06" y="-16" width="463" height="586.57"/></clipPath><clipPath id="clip-path-10" transform="translate(3)"><rect class="cls-1" x="388.74" y="-44" width="523.24" height="635.03"/></clipPath></defs><title>bansamajame</title><g id="Calque_3" data-name="Calque 3"><rect class="cls-2" y="5" width="799.06" height="352"/><rect class="cls-3" width="799.06" height="284.28"/><g class="cls-4"><g class="cls-4"><path d="M113.25,325.72s16.75-10,21.54-28.59,3.07-29.62,3.07-29.62-7.18-24.46-5.47-34.45,4.36-15.85,5.77-23.42,3.12-15.85-3-21.36-19.49-16.54-19.49-16.54-7.18,2.76-13.68,0-21.88-13.43-21.88-13.43l-8.55-2.07s5.13-4.13,9.24-2.75,10.94,7.23,15.72,8.95,11.29,1,11.29,1S102.31,150,102,146.6s-4.78-8.61-10.6-11.37-19.83-7.58-19.83-12,8.55,3.78,14.36,4.13,8.55-1,8.55-1S90,108.71,88,104.92A37.92,37.92,0,0,1,84.87,97s5.13,3.1,8.55,11,6.15,18.6,7.18,22,7.52,11.72,7.52,11.72a48.19,48.19,0,0,0,3.76,12.4c2.73,5.51,13.68,16.19,14.7,16.19s.34-12.06,3.08-15.5,4.44-10.34,2.39-14.13-7.52-13.43-7.52-17.91,6.5-15.16,6.5-15.16a11.56,11.56,0,0,0-1.71,13.09c3.76,7.58,6.49,13.44,7.86,16.88s2.39,10.34.34,15.16-5.13,17.57-4.44,20.32,11.62,10,13,13.09,20.17-32.38,22.22-35.82-5.47-12.4-6.15-19.64-2-21-.34-28.93a43.44,43.44,0,0,1,4.44-12.4l.34,10.33a80.23,80.23,0,0,0-1,10.34c-.34,6.89,5.13,26.52,7.52,28.59s12.65-7.58,16.07-14.47S195,107.67,195,101.13V78.74l2.74,2.76s2.05,7.92,2.05,12.74.34,17.57-1.71,23.08-3.42,9.3-3.42,9.3,12-3.44,17.78-9.64,17.44-21.71,17.78-24.12,0,7.93,0,7.93a46.94,46.94,0,0,1-8.55,15.84c-6.15,7.23-17.44,16.19-20.17,17.57s-10.6,4.13-15.39,10.33-14.36,22.39-17.44,28.59a64.7,64.7,0,0,0-4.44,11.71s18.8-7.92,28.72-10.67,13.33-9,15.39-14.82,3.41-17.22,3.41-17.22l4.11-2.75s-1.37,17.56-2.74,21.35,6.16-.69,10.94-5.51,14-13.78,14-13.78v5.17s-18.12,21-21.88,23.77S203.51,178,203.51,178s16.07,1.37,20.85,2.06a28,28,0,0,1,8.55,2.76s-2.39,1-9.57.69-16.75-.69-20.17-.69-13.34.69-21.88,4.82-18.47,10.33-21.89,19.63-5.13,12.75-4.61,22.39-.17,18.95,3.59,35.14,6.84,30,11.62,37.2,13.34,21.36,13.34,21.36-9.92,5.85-13,2.41-8.2-4.48-9.23-3.1-4.78,5.86-2.05,7.92-4.44,2.76-5.81,0-4.79-9-4.79-9-8.54,7.57-17.78,7.57a50.72,50.72,0,0,1-17.43-3.44" transform="translate(3)"/><path class="cls-5" d="M113.25,325.72s16.75-10,21.54-28.59,3.07-29.62,3.07-29.62-7.18-24.46-5.47-34.45,4.36-15.85,5.77-23.42,3.12-15.85-3-21.36-19.49-16.54-19.49-16.54-7.18,2.76-13.68,0-21.88-13.43-21.88-13.43l-8.55-2.07s5.13-4.13,9.24-2.75,10.94,7.23,15.72,8.95,11.29,1,11.29,1S102.31,150,102,146.6s-4.78-8.61-10.6-11.37-19.83-7.58-19.83-12,8.55,3.78,14.36,4.13,8.55-1,8.55-1S90,108.71,88,104.92A37.92,37.92,0,0,1,84.87,97s5.13,3.1,8.55,11,6.15,18.6,7.18,22,7.52,11.72,7.52,11.72a48.19,48.19,0,0,0,3.76,12.4c2.73,5.51,13.68,16.19,14.7,16.19s.34-12.06,3.08-15.5,4.44-10.34,2.39-14.13-7.52-13.43-7.52-17.91,6.5-15.16,6.5-15.16a11.56,11.56,0,0,0-1.71,13.09c3.76,7.58,6.49,13.44,7.86,16.88s2.39,10.34.34,15.16-5.13,17.57-4.44,20.32,11.62,10,13,13.09,20.17-32.38,22.22-35.82-5.47-12.4-6.15-19.64-2-21-.34-28.93a43.44,43.44,0,0,1,4.44-12.4l.34,10.33a80.23,80.23,0,0,0-1,10.34c-.34,6.89,5.13,26.52,7.52,28.59s12.65-7.58,16.07-14.47S195,107.67,195,101.13V78.74l2.74,2.76s2.05,7.92,2.05,12.74.34,17.57-1.71,23.08-3.42,9.3-3.42,9.3,12-3.44,17.78-9.64,17.44-21.71,17.78-24.12,0,7.93,0,7.93a46.94,46.94,0,0,1-8.55,15.84c-6.15,7.23-17.44,16.19-20.17,17.57s-10.6,4.13-15.39,10.33-14.36,22.39-17.44,28.59a64.7,64.7,0,0,0-4.44,11.71s18.8-7.92,28.72-10.67,13.33-9,15.39-14.82,3.41-17.22,3.41-17.22l4.11-2.75s-1.37,17.56-2.74,21.35,6.16-.69,10.94-5.51,14-13.78,14-13.78v5.17s-18.12,21-21.88,23.77S203.51,178,203.51,178s16.07,1.37,20.85,2.06a28,28,0,0,1,8.55,2.76s-2.39,1-9.57.69-16.75-.69-20.17-.69-13.34.69-21.88,4.82-18.47,10.33-21.89,19.63-5.13,12.75-4.61,22.39-.17,18.95,3.59,35.14,6.84,30,11.62,37.2,13.34,21.36,13.34,21.36-9.92,5.85-13,2.41-8.2-4.48-9.23-3.1-4.78,5.86-2.05,7.92-4.44,2.76-5.81,0-4.79-9-4.79-9-8.54,7.57-17.78,7.57A50.72,50.72,0,0,1,113.25,325.72Z" transform="translate(3)"/></g><g class="cls-4"><path class="cls-6" d="M68.63,154.86a11.57,11.57,0,0,0-2.51-3.21A44.17,44.17,0,0,0,61.41,148s-2.81-1.72-3.71-2.23-4.19-2.07-4.19-2.07l-4.67-3s-2.52-2-3.41-1.69-1.23,1.31-.6,2.56a21.63,21.63,0,0,0,1.86,3.16,17.47,17.47,0,0,0,3.1,2.49L52.85,149l.28,1a2.08,2.08,0,0,1-1.56,1.62,36.24,36.24,0,0,1-5.57.79c-.5,0-4.83-.78-6.34-1s-7.12-.46-7.12-.46a21.18,21.18,0,0,0-3.31.8c-.26.24-.88,1-.6,1.63a3.8,3.8,0,0,0,1.16,1.19l2.45.16,2.12-.06,2.8.37,4,.81,2.24.5,1.25.71.15.73-1.31.36s-4.17,0-5.24-.09-6.09.6-6.09.6l-4.68.87s-1.14.84-1.34,1.36-.62,1.71.36,2a16.38,16.38,0,0,0,3.35.24h4.53l4.49.32,5.36.48.56.38-4.29,1.1-4.71,1-4.34.4s-2.4.38-2.67,1.12a1.39,1.39,0,0,0,.39,1.67,14.77,14.77,0,0,0,2.36.88c.32,0,3.62-.26,3.62-.26l5.17.07s4.32-.59,4.94-.69a9.92,9.92,0,0,1,2.07.09s.55.55-.45,1.44-5,3.28-5,3.28L37.65,176s-1.85.92-2,1.36.34,1.57.34,1.57a2.53,2.53,0,0,0,2,.39c1.17-.24,8.58-3.3,8.58-3.3s2.83-1.06,4.53-1.61,7.88-1.37,8.39-1.6a22.91,22.91,0,0,0,4.59-2,9.82,9.82,0,0,0,3.87-4.38,11.38,11.38,0,0,0,.79-4.44s.9-4.73-.06-7.12" transform="translate(3)"/><path class="cls-7" d="M130.09,161.6a11.45,11.45,0,0,0,1.57-3.77,45.9,45.9,0,0,0,.84-5.9s.13-3.31.13-4.35-.24-4.69-.24-4.69l.33-5.58s.54-3.21-.19-3.82-1.74-.45-2.51.71a21,21,0,0,0-1.83,3.17,17.58,17.58,0,0,0-.66,3.95v3.53l-.69.71a2.07,2.07,0,0,1-2.16-.59,37.73,37.73,0,0,1-3.4-4.51c-.22-.45-1.66-4.63-2.2-6.07s-3.07-6.5-3.07-6.5a21.06,21.06,0,0,0-2.3-2.52c-.33-.11-1.31-.28-1.71.26a3.93,3.93,0,0,0-.47,1.6l1.06,2.24,1.08,1.83,1,2.65,1.24,3.89.66,2.22,0,1.45L116,142l-.94-1s-2-3.69-2.47-4.66-3.49-5.07-3.49-5.07l-3-3.69a5.14,5.14,0,0,0-1.83-.52c-.54.09-1.79.28-1.55,1.28a16.87,16.87,0,0,0,1.42,3.07l2.21,4,1.9,4.11,2.2,4.95-.06.68-3-3.24-3.12-3.68-2.46-3.63s-1.49-1.93-2.27-1.81A1.35,1.35,0,0,0,98.24,134a14,14,0,0,0,.38,2.51c.13.3,2,3,2,3l2.46,4.59s2.61,3.52,3,4A10.22,10.22,0,0,1,107,150s-.21.75-1.47.31-5.26-2.79-5.26-2.79l-3.57-2.89s-1.69-1.18-2.15-1.1-1.19,1.06-1.19,1.06a2.51,2.51,0,0,0,.61,1.91c.78.92,7,6,7,6s2.29,2,3.59,3.2,5,6.27,5.47,6.6a22.63,22.63,0,0,0,4,3.07,9.75,9.75,0,0,0,5.68,1.28,11.13,11.13,0,0,0,4.23-1.47s4.54-1.51,6.14-3.52" transform="translate(3)"/><path class="cls-7" d="M246.89,152.33a11.33,11.33,0,0,0,3.76,1.56,43.64,43.64,0,0,0,5.86.82s3.28.11,4.32.1,4.65-.27,4.65-.27l5.54.31s3.19.52,3.79-.22.44-1.75-.72-2.53a21.73,21.73,0,0,0-3.16-1.82,17,17,0,0,0-3.92-.64h-3.5l-.71-.69a2.09,2.09,0,0,1,.57-2.18,35.55,35.55,0,0,1,4.46-3.45c.44-.23,4.59-1.71,6-2.26s6.43-3.12,6.43-3.12a22.34,22.34,0,0,0,2.5-2.33c.1-.34.26-1.33-.28-1.72a3.7,3.7,0,0,0-1.59-.47l-2.21,1.08-1.82,1.1-2.61,1.06-3.86,1.27-2.2.68h-1.44l-.49-.56,1-1s3.66-2,4.62-2.51,5-3.54,5-3.54l3.65-3.08a5.15,5.15,0,0,0,.5-1.85c-.09-.54-.29-1.79-1.28-1.55a16.64,16.64,0,0,0-3,1.45l-3.95,2.24-4.07,1.95-4.9,2.23-.67-.05,3.2-3.08,3.64-3.16,3.58-2.5s1.91-1.52,1.78-2.3a1.37,1.37,0,0,0-1.15-1.26,13.48,13.48,0,0,0-2.49.41c-.29.13-3,2-3,2l-4.54,2.5s-3.48,2.65-4,3.05a10.17,10.17,0,0,1-1.84.94s-.75-.2-.32-1.47a59.55,59.55,0,0,1,2.74-5.32l2.85-3.61s1.16-1.71,1.08-2.18-1.06-1.19-1.06-1.19a2.48,2.48,0,0,0-1.89.63c-.91.78-5.87,7.12-5.87,7.12s-1.94,2.32-3.17,3.64-6.19,5.1-6.52,5.55a23.15,23.15,0,0,0-3,4,9.94,9.94,0,0,0-1.23,5.73,11.43,11.43,0,0,0,1.47,4.26s1.53,4.56,3.53,6.16" transform="translate(3)"/><path class="cls-6" d="M170.37,136.4a11.39,11.39,0,0,0,2.36-3.33,44.94,44.94,0,0,0,2.12-5.57s.85-3.19,1.08-4.21.79-4.63.79-4.63l1.55-5.37s1.23-3,.66-3.76-1.6-.83-2.61.13a21.43,21.43,0,0,0-2.49,2.69,17.49,17.49,0,0,0-1.5,3.7l-.79,3.44-.83.54a2.06,2.06,0,0,1-2-1,37.68,37.68,0,0,1-2.33-5.17c-.12-.48-.6-4.88-.81-6.4s-1.57-7-1.57-7a22.49,22.49,0,0,0-1.68-3c-.31-.18-1.23-.56-1.73-.12a3.86,3.86,0,0,0-.81,1.45l.54,2.42.65,2,.44,2.81.35,4.08.15,2.31-.33,1.4-.66.36-.7-1.17s-1.14-4-1.39-5.09-2.28-5.72-2.28-5.72l-2.15-4.28a5.13,5.13,0,0,0-1.67-.91c-.55,0-1.8-.13-1.79.9a16.67,16.67,0,0,0,.71,3.31l1.28,4.38.95,4.43,1.05,5.31-.2.66-2.26-3.85-2.23-4.28-1.6-4.08s-1-2.22-1.82-2.27a1.34,1.34,0,0,0-1.47.85,14.26,14.26,0,0,0-.18,2.53c.06.32,1.26,3.42,1.26,3.42l1.39,5s1.77,4,2.05,4.59a10.72,10.72,0,0,1,.49,2s-.36.68-1.5,0a57.41,57.41,0,0,1-4.51-3.89l-2.85-3.61s-1.39-1.53-1.86-1.56-1.39.77-1.39.77a2.55,2.55,0,0,0,.17,2C139,114.67,144,121,144,121s1.8,2.43,2.8,3.93,3.52,7.23,3.89,7.65a22.66,22.66,0,0,0,3.2,3.88,9.7,9.7,0,0,0,5.26,2.51,11.14,11.14,0,0,0,4.45-.48s4.76-.46,6.76-2.07" transform="translate(3)"/><path class="cls-8" d="M126.58,108.25a11.3,11.3,0,0,0,2.12-3.48,44.35,44.35,0,0,0,1.73-5.7s.63-3.25.79-4.28.47-4.67.47-4.67l1.18-5.47s1-3.09.39-3.8-1.65-.71-2.59.32A21.48,21.48,0,0,0,128.38,84a17.55,17.55,0,0,0-1.25,3.8l-.55,3.48-.78.6a2.06,2.06,0,0,1-2-.91,37.9,37.9,0,0,1-2.67-5c-.16-.48-.94-4.83-1.26-6.34s-2-6.89-2-6.89a21.8,21.8,0,0,0-1.89-2.85c-.31-.16-1.26-.48-1.73,0a3.82,3.82,0,0,0-.71,1.5l.71,2.38.79,2,.63,2.77.63,4,.31,2.3-.24,1.42-.63.4-.78-1.11s-1.42-4-1.73-5-2.67-5.54-2.67-5.54L108,71a5.12,5.12,0,0,0-1.73-.79c-.55,0-1.81,0-1.73,1a17.18,17.18,0,0,0,.94,3.24l1.58,4.28,1.25,4.36,1.42,5.22-.16.67-2.51-3.67-2.52-4.12-1.89-4s-1.18-2.14-2-2.14a1.36,1.36,0,0,0-1.42,1,13.34,13.34,0,0,0,0,2.53c.08.32,1.5,3.33,1.5,3.33l1.73,4.91s2,3.88,2.35,4.44a9.92,9.92,0,0,1,.63,2s-.31.71-1.49.07a57.73,57.73,0,0,1-4.78-3.56l-3.08-3.41s-1.5-1.42-2-1.42-1.33.87-1.33.87a2.51,2.51,0,0,0,.31,2c.63,1,6,7,6,7s2,2.3,3.07,3.72,4,7,4.4,7.37a23.24,23.24,0,0,0,3.46,3.64,9.76,9.76,0,0,0,5.43,2.14,11.15,11.15,0,0,0,4.4-.79s4.72-.79,6.6-2.54" transform="translate(3)"/><path class="cls-9" d="M203.44,133.86a11.47,11.47,0,0,0,3.88-1.2,44.81,44.81,0,0,0,5-3.12s2.6-2,3.39-2.69,3.42-3.19,3.42-3.19l4.48-3.31s2.79-1.64,2.79-2.59-.77-1.64-2.16-1.5a21.35,21.35,0,0,0-3.59.62,17.23,17.23,0,0,0-3.43,2l-2.7,2.25-1-.08a2.07,2.07,0,0,1-.93-2,36,36,0,0,1,1.27-5.52c.19-.46,2.46-4.25,3.21-5.59s3-6.53,3-6.53a22.6,22.6,0,0,0,.46-3.4c-.13-.33-.63-1.19-1.3-1.15a3.7,3.7,0,0,0-1.52.66l-1,2.25-.71,2-1.35,2.5-2.17,3.45-1.28,1.93-1.11.91-.73-.12.14-1.36s1.53-3.91,2-4.89,1.64-5.94,1.64-5.94l.87-4.71a5.22,5.22,0,0,0-.77-1.75c-.42-.37-1.36-1.21-2-.38a17.36,17.36,0,0,0-1.42,3.06l-1.63,4.26-1.91,4.11-2.37,4.86-.56.4.53-4.44.81-4.77,1.19-4.22s.52-2.39-.07-2.92a1.35,1.35,0,0,0-1.69-.22,13.34,13.34,0,0,0-1.66,1.9c-.15.29-1.07,3.49-1.07,3.49l-1.92,4.83s-1,4.28-1.14,4.9a10.43,10.43,0,0,1-.83,1.91s-.71.32-1.17-.94a59.16,59.16,0,0,1-1.25-5.86L195,97.13s-.18-2.06-.54-2.38-1.57-.23-1.57-.23a2.49,2.49,0,0,0-1.06,1.69c-.21,1.19,0,9.26,0,9.26s0,3-.14,4.84-1.57,7.9-1.53,8.46a22.5,22.5,0,0,0,.2,5A9.84,9.84,0,0,0,193,129a11,11,0,0,0,3.82,2.34s4.06,2.55,6.62,2.5" transform="translate(3)"/><path class="cls-10" d="M193.73,73.35a11.62,11.62,0,0,1-2-3.49,49.6,49.6,0,0,1-1.59-5.7s-.58-3.25-.72-4.28-.44-4.67-.44-4.67l-1.08-5.46s-.95-3.09-.37-3.81,1.52-.71,2.39.32a21.77,21.77,0,0,1,2.12,2.85,19.16,19.16,0,0,1,1.14,3.8l.51,3.49.72.59a1.82,1.82,0,0,0,1.89-.91,37.8,37.8,0,0,0,2.46-5c.14-.47.87-4.83,1.16-6.33s1.88-6.89,1.88-6.89A22.63,22.63,0,0,1,203.58,35c.29-.15,1.16-.47,1.59,0a4,4,0,0,1,.66,1.51l-.66,2.38-.72,2-.58,2.77-.58,4L203,50l.22,1.43.58.4.72-1.11s1.31-4,1.6-5,2.46-5.55,2.46-5.55L210.82,36a4.57,4.57,0,0,1,1.6-.79c.5,0,1.66,0,1.59,1a18.06,18.06,0,0,1-.87,3.25l-1.45,4.28-1.16,4.35-1.3,5.23.15.67,2.31-3.68L214,46.26l1.74-4s1.09-2.14,1.81-2.14a1.26,1.26,0,0,1,1.3,1,13.44,13.44,0,0,1,0,2.54c-.07.31-1.37,3.32-1.37,3.32l-1.6,4.91s-1.88,3.89-2.17,4.44a10.93,10.93,0,0,0-.58,2s.29.71,1.38.08a54.86,54.86,0,0,0,4.4-3.56l2.84-3.41S223.14,50,223.57,50s1.23.88,1.23.88a2.72,2.72,0,0,1-.29,2c-.58,1-5.57,7-5.57,7s-1.81,2.29-2.83,3.72-3.69,7-4.05,7.36a22.64,22.64,0,0,1-3.19,3.65,8.61,8.61,0,0,1-5,2.14,9.72,9.72,0,0,1-4.06-.8s-4.34-.79-6.08-2.53" transform="translate(3)"/><path class="cls-9" d="M117.39,178a11.27,11.27,0,0,0-3.83-1.35,44.39,44.39,0,0,0-5.9-.49s-3.28.07-4.31.13-4.63.53-4.63.53H93.17s-3.22-.35-3.78.42-.34,1.78.86,2.49a21.21,21.21,0,0,0,3.25,1.65,17.16,17.16,0,0,0,4,.42l3.49-.19.75.64a2.1,2.1,0,0,1-.45,2.21A37,37,0,0,1,97,188.13c-.42.25-4.48,2-5.88,2.58s-6.25,3.48-6.25,3.48a21.77,21.77,0,0,0-2.36,2.46c-.09.34-.2,1.34.37,1.7a3.83,3.83,0,0,0,1.61.38l2.15-1.2,1.75-1.2,2.56-1.2,3.78-1.48,2.16-.8,1.44-.07.52.54-.91,1s-3.54,2.23-4.48,2.76-4.81,3.81-4.81,3.81l-3.48,3.27a5.36,5.36,0,0,0-.4,1.87c.12.54.39,1.78,1.37,1.49a17.22,17.22,0,0,0,3-1.62l3.81-2.46,4-2.16,4.77-2.5h.68l-3,3.26-3.46,3.35-3.44,2.7s-1.83,1.61-1.66,2.38a1.37,1.37,0,0,0,1.22,1.2,14.26,14.26,0,0,0,2.46-.54c.29-.15,2.91-2.18,2.91-2.18l4.4-2.74s3.33-2.84,3.8-3.27a10.44,10.44,0,0,1,1.79-1s.75.15.39,1.45a57.49,57.49,0,0,1-2.44,5.46l-2.65,3.76s-1.07,1.77-1,2.24,1.13,1.13,1.13,1.13a2.51,2.51,0,0,0,1.85-.73c.87-.84,5.48-7.44,5.48-7.44s1.81-2.42,3-3.81,5.91-5.43,6.21-5.9a22.67,22.67,0,0,0,2.8-4.18,10,10,0,0,0,.93-5.79,11.45,11.45,0,0,0-1.71-4.17s-1.77-4.47-3.86-6" transform="translate(3)"/><path class="cls-11" d="M61,127.59a11.25,11.25,0,0,1-4.1-.13,43.35,43.35,0,0,1-5.68-1.72s-3-1.28-4-1.72-4.11-2.23-4.11-2.23L38,119.74s-3.13-.86-3.35-1.8.37-1.82,1.77-2.06a22.23,22.23,0,0,1,3.67-.37,16.88,16.88,0,0,1,3.85,1.06l3.18,1.49.94-.35a2.18,2.18,0,0,0,.44-2.27,36,36,0,0,0-2.54-5.11c-.3-.4-3.41-3.53-4.47-4.65S37,100.05,37,100.05a22.57,22.57,0,0,1-1.25-3.23c.06-.36.34-1.35,1-1.49a3.75,3.75,0,0,1,1.65.23l1.53,2,1.17,1.79L43,101.4,46,104.21l1.71,1.57,1.3.59.69-.32-.45-1.3s-2.43-3.44-3.09-4.29-3-5.43-3-5.43l-2-4.41a5.53,5.53,0,0,1,.36-1.94c.32-.47,1-1.56,1.85-.91a16.79,16.79,0,0,1,2.12,2.64l2.59,3.76,2.85,3.53,3.46,4.16.64.24-1.55-4.24-1.92-4.48-2.15-3.85s-1.07-2.22-.61-2.9a1.38,1.38,0,0,1,1.6-.68,12.79,12.79,0,0,1,2.08,1.42c.21.25,1.86,3.16,1.86,3.16l3,4.25s2,3.94,2.26,4.53A10.55,10.55,0,0,0,60.9,101s.77.13.94-1.24-.15-6.12-.15-6.12l-1-4.58a7.47,7.47,0,0,1,0-2.49c.28-.41,1.5-.66,1.5-.66a2.41,2.41,0,0,1,1.44,1.38c.48,1.12,2.2,9.14,2.2,9.14s.74,3,1.27,4.73,3.39,7.38,3.49,7.94a23.51,23.51,0,0,1,1,5,10.37,10.37,0,0,1-1.4,5.88,12,12,0,0,1-3.21,3.35s-3.39,3.62-5.92,4.27" transform="translate(3)"/><path class="cls-11" d="M240.79,106.37a11.19,11.19,0,0,0,4,.39,44.81,44.81,0,0,0,5.85-1s3.17-.86,4.15-1.17,4.38-1.63,4.38-1.63l5.38-1.34s3.21-.44,3.57-1.32-.1-1.81-1.43-2.21a20.39,20.39,0,0,0-3.55-.81,17.42,17.42,0,0,0-3.94.54l-3.34,1-.88-.45a2.08,2.08,0,0,1-.09-2.25,36.63,36.63,0,0,1,3.27-4.61c.36-.36,3.89-3,5.09-3.93s5.25-4.89,5.25-4.89a22.65,22.65,0,0,0,1.71-3c0-.35-.13-1.35-.77-1.56a3.71,3.71,0,0,0-1.65,0L266,80l-1.42,1.58-2.2,1.79-3.32,2.35L257.18,87l-1.37.42-.63-.4.64-1.2s2.91-3,3.69-3.76,3.76-4.86,3.76-4.86l2.6-4a5.26,5.26,0,0,0-.06-1.91c-.24-.5-.8-1.63-1.68-1.11a16.94,16.94,0,0,0-2.48,2.28l-3.12,3.31-3.32,3.06-4,3.58-.66.15,2.17-3.9,2.56-4.09,2.7-3.45s1.38-2,1-2.72a1.36,1.36,0,0,0-1.47-.86,13.6,13.6,0,0,0-2.26,1.12c-.25.21-2.31,2.82-2.31,2.82l-3.61,3.72s-2.56,3.56-2.92,4.09a10,10,0,0,1-1.48,1.44s-.78,0-.73-1.32a58.08,58.08,0,0,1,1.07-5.89L247,69.19a7.1,7.1,0,0,0,.4-2.4C247.14,66.36,246,66,246,66a2.52,2.52,0,0,0-1.63,1.16c-.64,1-3.55,8.54-3.55,8.54s-1.18,2.79-2,4.42-4.45,6.69-4.63,7.22A23,23,0,0,0,232.5,92a9.88,9.88,0,0,0,.48,5.85,11.32,11.32,0,0,0,2.64,3.64s2.79,3.91,5.17,4.85" transform="translate(3)"/><path class="cls-12" d="M169.5,170.43a11.43,11.43,0,0,1,.5-4.06,45.13,45.13,0,0,1,2.19-5.54s1.52-2.93,2-3.84,2.53-3.94,2.53-3.94l2.47-5s1.11-3.06,2.05-3.22,1.73.48,1.83,1.88a23.78,23.78,0,0,1,0,3.67,17.69,17.69,0,0,1-1.39,3.75L180,157.19l.25.95a2.06,2.06,0,0,0,2.16.58,36.56,36.56,0,0,0,5.17-2.22c.42-.27,3.73-3.18,4.91-4.16s5.87-4.1,5.87-4.1a22.16,22.16,0,0,1,3.24-1c.34.08,1.27.42,1.35,1.09a3.88,3.88,0,0,1-.38,1.62l-2,1.41-1.84,1.05-2.21,1.77-3,2.76-1.67,1.6-.7,1.26.25.71,1.3-.38s3.55-2.2,4.44-2.81,5.52-2.65,5.52-2.65l4.45-1.68a5.15,5.15,0,0,1,1.84.46c.43.35,1.41,1.14.71,1.9a16.78,16.78,0,0,1-2.74,1.94L203,159.6l-3.68,2.61-4.35,3.2-.29.62,4.24-1.29,4.52-1.64,3.93-1.91s2.24-.93,2.86-.43a1.37,1.37,0,0,1,.51,1.63,13.29,13.29,0,0,1-1.57,2c-.26.2-3.23,1.66-3.23,1.66l-4.39,2.75s-4,1.74-4.59,2a10.57,10.57,0,0,0-1.72,1.15s-.19.76,1.12,1a56.92,56.92,0,0,0,5.94.22l4.51-.72s2-.18,2.42.12.5,1.52.5,1.52a2.49,2.49,0,0,1-1.47,1.35c-1.13.41-9,1.64-9,1.64s-3,.56-4.7,1-7.45,2.92-8,3a22.59,22.59,0,0,1-5,.67,9.73,9.73,0,0,1-5.56-1.74,11.22,11.22,0,0,1-2.94-3.38s-3.19-3.59-3.58-6.13" transform="translate(3)"/><path class="cls-12" d="M152.33,87.5a11.38,11.38,0,0,1-3.46-2,47.76,47.76,0,0,1-4.21-4.17s-2.09-2.54-2.72-3.36-2.66-3.86-2.66-3.86l-3.63-4.22s-2.35-2.21-2.17-3.13,1-1.4,2.32-.94a21,21,0,0,1,3.3,1.41A18.33,18.33,0,0,1,142,69.92l2.15,2.78.94.15a1.94,1.94,0,0,0,1.27-1.76,36.92,36.92,0,0,0-.18-5.61c-.1-.49-1.55-4.66-2-6.12s-1.63-7-1.63-7a22.08,22.08,0,0,1,.2-3.38c.18-.29.82-1,1.44-.81a3.77,3.77,0,0,1,1.32,1l.56,2.4.3,2.1.82,2.72,1.43,3.82.85,2.16.88,1.13.72,0,.12-1.34s-.73-4.12-1-5.17-.45-6.1-.45-6.1l0-4.74a4.85,4.85,0,0,1,1.06-1.51c.46-.25,1.51-.85,2,.09a18,18,0,0,1,.78,3.28l.76,4.47,1,4.4,1.35,5.23.45.5.33-4.39.11-4.78-.34-4.34s0-2.43.61-2.8a1.29,1.29,0,0,1,1.64.17,14.26,14.26,0,0,1,1.23,2.21c.08.31.36,3.61.36,3.61l.93,5.1s.17,4.35.17,5a11.08,11.08,0,0,0,.44,2s.6.47,1.28-.64a56.86,56.86,0,0,0,2.27-5.36l.93-4.42s.56-2,1-2.17,1.54.13,1.54.13a2.61,2.61,0,0,1,.69,1.88c0,1.19-1.69,8.93-1.69,8.93s-.53,2.93-.76,4.69,0,8-.11,8.5a22.89,22.89,0,0,1-1.13,4.81,9.18,9.18,0,0,1-3.5,4.42,10.22,10.22,0,0,1-4.07,1.38s-4.33,1.53-6.75.9" transform="translate(3)"/><path class="cls-10" d="M235.71,190.31a11.42,11.42,0,0,0,1,4,45.52,45.52,0,0,0,2.83,5.24s1.86,2.72,2.48,3.56,3,3.61,3,3.61l3.05,4.68s1.47,2.89,2.42,2.94,1.66-.69,1.59-2.09a21.08,21.08,0,0,0-.42-3.64A17.56,17.56,0,0,0,249.8,205l-2.08-2.84.13-1a2.05,2.05,0,0,1,2.07-.83,35.79,35.79,0,0,1,5.41,1.57c.45.22,4.09,2.71,5.37,3.53s6.32,3.36,6.32,3.36a22.59,22.59,0,0,0,3.34.64c.33-.12,1.22-.57,1.21-1.25a3.88,3.88,0,0,0-.57-1.56l-2.18-1.15-1.95-.82-2.41-1.49-3.3-2.38-1.85-1.38-.84-1.17.16-.73,1.33.21s3.8,1.76,4.75,2.25,5.8,2,5.8,2l4.62,1.13a5.07,5.07,0,0,0,1.78-.69c.38-.39,1.26-1.3.48-2a16.8,16.8,0,0,0-3-1.6L270.29,197l-4-2.15-4.7-2.64-.36-.58,4.37.77,4.68,1.07,4.12,1.42s2.34.65,2.9.08a1.37,1.37,0,0,0,.31-1.68,13.62,13.62,0,0,0-1.79-1.78c-.28-.16-3.41-1.25-3.41-1.25l-4.69-2.2L263,186.63a10.19,10.19,0,0,1-1.84-.93s-.29-.73,1-1.13a56.69,56.69,0,0,1,5.88-.94l4.57.17a7.06,7.06,0,0,0,2.39-.42c.33-.34.31-1.57.31-1.57a2.49,2.49,0,0,0-1.62-1.16c-1.17-.27-9.18-.53-9.18-.53s-3-.19-4.78-.4-7.75-2-8.3-2a21.88,21.88,0,0,0-5-.06,9.68,9.68,0,0,0-5.31,2.4,11.36,11.36,0,0,0-2.52,3.72s-2.74,4-2.83,6.52" transform="translate(3)"/></g></g><g class="cls-13"><g class="cls-13"><path d="M309.53,284.12a106,106,0,0,0,1.55,12.71c1.17,5.75,5.45,19.51,5.06,20.9s-3.86,5.4-3.29,6.45.57,3.48,1.93,3.48,8.56-4.18,10.5-5.75,1.56-10.1,2.72-14.1a69.84,69.84,0,0,1,4.28-9.93s2.72,2.44,4.67,9.4,1.36,10.28,2.91,12.37a22.7,22.7,0,0,0,4.86,5.05,12.37,12.37,0,0,0,6,1.74c1.17-.17,2.92-1.91,2.92-1.91a17.86,17.86,0,0,1-2.92-6.8c-.78-4-1.36-7.49-1-9.92A111.76,111.76,0,0,0,351,294.92c0-3.66-.39-12.2-1.17-13.24a18.22,18.22,0,0,1-1.56-4.4Z" transform="translate(3)"/><path class="cls-14" d="M291.45,262.17s-6.62-1.74-7.39-.87-.39,2.79,1.94,3.83,7.2,0,7.2,0Z" transform="translate(3)"/><path class="cls-14" d="M358,248.89s3.89-1.45,5.25-.79,1.75,1.72,0,3a14.24,14.24,0,0,1-4.09,2Z" transform="translate(3)"/><path class="cls-15" d="M444.09,249.28a30,30,0,0,0-4.28,2.08c-1.17.83-2.34,1.25,0,2.08s6,0,6,0Z" transform="translate(3)"/><path class="cls-15" d="M501.25,243.36l1,4.57s5.44-.09,6.22-1.42,1.94-2.39,0-2.39-7.2-.76-7.2-.76" transform="translate(3)"/><path class="cls-9" d="M458.48,292.3a151.11,151.11,0,0,1,0,17.07c-.59,7.14-1.17,10.8-1,12.89s-1.42,3.31,1.23,2.44,5.19-6.62,6.36-9.75S469,302.47,469,302.47l1.36-9Z" transform="translate(3)"/><path class="cls-9" d="M480.45,293.7s2.14,10,3.5,14.94,1.75,11.36,3.3,13.1a19.63,19.63,0,0,0,4.28,3.25l1-14.05-1.16-23.17Z" transform="translate(3)"/><path class="cls-15" d="M465.34,224s.91,2.79,0,3.66a10.21,10.21,0,0,1-3.07,1.57L461,230.47s.08,2.61,4.75,4.7,11.71-2.26,11.71-2.26l1.63-4-4.52-1.57-2.17-4.18Z" transform="translate(3)"/><path class="cls-16" d="M370.78,246.62s-5.63-1.41-6.41-1-.2,2.15,1.35,3a44.36,44.36,0,0,0,4.09,1.88Z" transform="translate(3)"/><path class="cls-16" d="M430.67,253.11l1.94,4.36s3.89-2.27,4.67-3a.9.9,0,0,0,0-1.4,5,5,0,0,0-3.13-.87,15.3,15.3,0,0,0-3.48.87" transform="translate(3)"/><path class="cls-17" d="M330,231.7a20.49,20.49,0,0,0,4.86-.88" transform="translate(3)"/><path class="cls-17" d="M321.78,215.49a3.84,3.84,0,0,1,4.22-.76" transform="translate(3)"/><path class="cls-17" d="M335.78,212.76s1.81-1.45,3.24-.58" transform="translate(3)"/><path class="cls-17" d="M394.11,243.36s3.5-3.37,6,.4" transform="translate(3)"/><path class="cls-17" d="M406.75,244.58S411,241.69,413,246" transform="translate(3)"/><path class="cls-18" d="M398.59,248.63s-1,2.18,0,3.59,4.31,1.59,5.26,1.59,3.1-2.22,2.9-3.29-8.16-1.89-8.16-1.89" transform="translate(3)"/><path class="cls-17" d="M454.78,211.56s1-4.86,6.22-2" transform="translate(3)"/><path class="cls-17" d="M469.17,209s1-6.27,6.22-1.56" transform="translate(3)"/><path class="cls-18" d="M463.14,215.49s0,4.41,1.95,5.17,6.61-.64,6.8-1.34-.78-4.59-.78-4.59Z" transform="translate(3)"/></g><g class="cls-13"><path class="cls-10" d="M321.2,237.09s1.94,2.44,0,3.13-5.06,1.05-7,3.49a134.72,134.72,0,0,1-11.67,11.84c-2.92,2.44-9.53,6.27-10.89,6.27s-.78.7,0,2.61,3.5,4.18,3.5,4.18,13.61-4.7,16.14-7.14-1.36,4.36-2.14,9.41a114,114,0,0,0-.78,13.41l.39,3.66s15.36,1.91,22.95.87,18.47-7,18.47-7-3.7-12.54-5.25-16.2-4.08-8.53-4.08-8.53a35.81,35.81,0,0,0,10.3-.35c4.47-1,9.14-3.48,9.92-4.53s-2.53-4.35-2.53-4.35a20.51,20.51,0,0,1-9.14.34c-5.64-.87-11.47-5.92-12.44-6.61s-7.39-2.44-7.39-2.44l-.59-2.09Z" transform="translate(3)"/><path class="cls-6" d="M369,250.67a17.05,17.05,0,0,1,8.56,5.4c3.3,4.18,4.47,3.8,4.47,7a89.37,89.37,0,0,1-1.36,14.17,52.17,52.17,0,0,0-.59,14.85,177,177,0,0,0,3.31,18.46,38.12,38.12,0,0,1,1.17,8.89s0,5.22,1.16,5.92,3.89-.87,5.06-3.83,1.16-8.89,2.72-12.89,6.61-11.85,6.61-11.85a34.7,34.7,0,0,1,3.89,8.54c1.17,4.35,1.17,11.14,1.56,13.23s-.39,4.71,1.16,6.1,1.56,3,4.67-2.61,4.86-7.32,6-13.07S420,298.75,420,292.3A89.84,89.84,0,0,0,418.81,278c-.39-2.26-1.95-6.79-1.17-8.71s1.36-3.69,6.22-6.2a109.44,109.44,0,0,0,9.73-5.82l-1.37-4.53s-11.86,1.57-15.16,2.62-9.92,2.61-13.61,1.39-14.39-4.88-14.39-4.88l-3.5-2.78a56.28,56.28,0,0,0-8.75-2.79,25.33,25.33,0,0,0-7.78,0Z" transform="translate(3)"/><path class="cls-8" d="M463.14,228.9a18.08,18.08,0,0,0-5.25,3.31c-2.14,2.09-3.69,6.62-5.05,8.71s-6.62,7.14-7.59,7.49l-2.91,1,2.33,3.84s4.86.69,8.07-1l5.15-2.79s-.19,7.49-2.72,12.55-7.2,14.28-7.2,14.28L440.2,286s3.5,3.32,5.64,5.24a12.67,12.67,0,0,0,7.58,3,54.61,54.61,0,0,1,7.58,0c2.73.35,4.28,1.91,8.75,3.48s11.09,1.4,14,0,5.25-3.83,8.36-5.57,7.2-4,8.37-3.83-13.23-39.37-13.23-40.94,10.25,1.22,13.29.7l3-.52-1-4.18S491.73,238,488.42,235a75.89,75.89,0,0,0-8.36-6.1,17.1,17.1,0,0,0-3.31-1.92s-1,4-4.86,4.88-5.64-.35-5.64-.35Z" transform="translate(3)"/></g><g class="cls-13"><path class="cls-14" d="M341.87,210.55s-.13,2.79,0,5,1.43,4.53,1.56,6.15-.26,8.59-3.5,11.26a50.82,50.82,0,0,1-8.56,5.23s-9.46,0-13.48-1.1-9.2-8-9.2-8L306,224.37v-8.13l6.62-5.11,7.64-6.38,9.34-.93,7.39,1.39L342,209Z" transform="translate(3)"/><path class="cls-16" d="M388.15,238.19s-1.3,4.53-1,6.85.63,5.8,1.29,6.33a16.83,16.83,0,0,0,5.84,3.89c3.11,1.05,7.91,2.32,7.91,2.32s5.7,1.4,10.24-2.2,5.32-7.36,5.32-7.36l1-4.37v-4.18l-.9-3.73-1.95-4.63-4.28-2.44a43,43,0,0,1-5.18-1.69c-.52-.4-5.12-1.1-5.12-1.1l-4.86,1.1-4.54,1.57L390,231Z" transform="translate(3)"/><path class="cls-15" d="M447.91,201.84a38.59,38.59,0,0,0,.78,7.78c.78,2.91,1.94,7.44,3.37,9.06a16.51,16.51,0,0,0,5.31,4.47,18.35,18.35,0,0,0,6.36,1.69s11.27,0,13.22-1.17,4.53-3.48,5.31-5.57,1.82-6.15,1.56-8.13-1.3-7.08-1.3-7.08l-1.29-4.76-2.21-3.6s-10.24-1.74-10.76-1.74S458.54,194,458,194s-10.11,7.89-10.11,7.89" transform="translate(3)"/></g><g class="cls-13"><path class="cls-15" d="M450.11,211.6s-2.33-.35-2.85,1-1,3.37.78,4.53a4.93,4.93,0,0,0,3.76.58v-3Z" transform="translate(3)"/><path class="cls-15" d="M482.13,206.61a2.94,2.94,0,0,1,2.6,0c1.29.69,2.72,1.51,2.59,2.43s-.65,2.56-1.69,3a11.47,11.47,0,0,1-2.46.7Z" transform="translate(3)"/><path class="cls-16" d="M388.8,240.63s-1-.93-1.95-.58a2.92,2.92,0,0,0-1.68,1.51,2.49,2.49,0,0,0,.65,2.67,8.53,8.53,0,0,0,1.94,1.28Z" transform="translate(3)"/><path class="cls-16" d="M417.71,243.76l-.65,4.82s.78.29,1.81-.64a3.13,3.13,0,0,0,1-2.43,8.48,8.48,0,0,0-.78-1.75Z" transform="translate(3)"/><path class="cls-19" d="M329.28,221.74c.29,2.28-.92,4.28-2.7,4.46s-3.45-1.52-3.74-3.81.91-4.28,2.69-4.47,3.46,1.53,3.75,3.82" transform="translate(3)"/><path class="cls-19" d="M341.6,220.39c.27,2.17-.66,4-2.08,4.19s-2.8-1.5-3.08-3.66.66-4,2.08-4.19,2.8,1.5,3.08,3.66" transform="translate(3)"/><path class="cls-12" d="M332.15,208a20.13,20.13,0,0,1-3.63,3.56,9.26,9.26,0,0,1-3.24,1.2,24.49,24.49,0,0,0,1.3-4.3c0-.93-3.12,3.1-3.12,3.1l-1.29,1.2-.78-2.38L319.06,214l-.78-3-.78,4.64-1.42-2.78s-.65,3.77,0,5-3.24-1.54-3.24-1.54.12,4.3.9,5-2.72-.69-2.72-.69L313,224s-1.81-4.41-3.24-3.36-2.85,1.62-2.72,3.36,0,2.79,1,3.49a14.41,14.41,0,0,1,2.59,3.25l2.08,2.44,1.55,1.39s-1.81,4.3-2.59,4.53.26-.93.26-2-3.11,0-3.11,0,1.42-2,1.42-3-3.24,1.16-4,.81,1.95-1.86,2.21-2.67-3.5,1-4.28.11,1.56-1.16,2.07-2.32-3.88-.11-5.05-.93,2.72-.11,3.24-.81-3.5-.93-4.28-1.86a17.67,17.67,0,0,0-1.55-1.62,3.14,3.14,0,0,0,2.85,0,4.25,4.25,0,0,0,1.68-2.21,3.84,3.84,0,0,0-2.59-.57c-1.17.34-4.15-1.4-4.15-1.4l-1-2.76a2.83,2.83,0,0,0,2.2,1.25,4.59,4.59,0,0,0,3.24-1.25,12.39,12.39,0,0,1-2.2-1.19c-.52-.47,1.68-.23,2.2-.7s1.3-1.28,1.3-1.28a20.72,20.72,0,0,1-2.73-1.27,10.69,10.69,0,0,1-1.16-1.9,6.73,6.73,0,0,0,2.85.74,6,6,0,0,0,2.2-.74,5.58,5.58,0,0,0,0-3.1c-.52-1.39-1.29-3-1.29-3a1.44,1.44,0,0,1,1.68.82c.65,1.16,1.43.93,2.21.93a12.67,12.67,0,0,0,3-1.05s-2.86-1.28-3.11-2,.51.69,1.81,0,3.11-1.63,3.11-1.63a17.66,17.66,0,0,1-.91-2.67v-1.39s0,.46,1.56,1.27,3.5,1.05,4.28.58,1.29-.58,1.42-1.85,1.82-3.14,1.82-3.14l1.81-1.16s-1.55,1-.9,2.21a4.78,4.78,0,0,0,2.33,1.74,10.92,10.92,0,0,1,3.37-2.79,38.25,38.25,0,0,1,4.54-1.16S328,195.81,328,196.5a7.45,7.45,0,0,1-.26,1.63,3.35,3.35,0,0,0,2.6.35,17.71,17.71,0,0,1,3.22-.7l2.61-1.16s-1.69,1.51-1.69,2.32a7.29,7.29,0,0,0,.65,2.21s.13.69,1.82.58a10.08,10.08,0,0,0,3.63-1.28l1-1v1.85c0,.7.65,2.09,0,2.56a9.56,9.56,0,0,0-1.42,1.39,11.86,11.86,0,0,0,3.11,1.63c1.55.46,2.33,1.39,2.72,1.28s-2.85.34-2.85.34,1.62,2.94,2.88,3.1-2.88,0-2.88,0,1.29,2.13,1.94,2.13-4.92-2.21-5.31-3.48-2.85-2.56-2.85-2.56v3l-2.21-3.37Z" transform="translate(3)"/><path d="M387.63,239.15v-4.33L388.8,233v-2.2l1.17-2.32,1-2,1.69-1.16H394l1.69-1.51H397v-3.13a4.51,4.51,0,0,0,.9,2.2,4,4,0,0,0,2.6.93,72.18,72.18,0,0,1,8,1.05c2.21.58,3.5.46,5.19,1.62s3.89,3,4.28,4.07,2.33,3.71,1.94,4.64.52,2.62,0,4a24.64,24.64,0,0,0-.91,3.59L417.71,240v-2l-.65-2.32-.78-1.75-1.3.82-.77-1.28-1.3-1.16-1.17-.57-1.29-1.17-.52.69-1.3-1.39-.78.7-1.68-1.63-1.3.81-1-1.74-1.31,1.16-1.23-1.62-.72,2.2L399,228.44l-.65,1.85-1.17-1.16-.51,1.63-1.3-1-.78,1-2.07-1.16v2.1l-1-.48.65,2.09a1,1,0,0,0-1.3.47c-.52.81-3.24,5.37-3.24,5.37" transform="translate(3)"/><path class="cls-11" d="M448,211.56a25.47,25.47,0,0,1-2.85-5.26c-.52-1.9-1.3-5.73-1-6.89a10,10,0,0,0,0-3s-6.3-.24-7.47.69,3.57-2.55,3.57-2.55l-6.61-2.67,8-.58-2.34-4.3,6.62,2.67.93-4.64s2.08,3.83,2.52,5,4.58-2.55,9-3.37a44,44,0,0,1,8.3-.69,70.55,70.55,0,0,1,7.26.46c1.68.35.64-3.6,1.94-4.41a3.39,3.39,0,0,1,2.08-.7,2.35,2.35,0,0,0-.91,2c0,1.39.13,3.36.13,3.36a6.89,6.89,0,0,1,3.37-3.6,28.6,28.6,0,0,1,4.28-1.75s-2.86,3.26-2.6,4.19,1.95.7,4.28.81a5.47,5.47,0,0,1,4,2.09,4.74,4.74,0,0,1,.78,1.75s-2.6-2.21-4.41-1.28-3.24,1.51-3.24,1.51l3.77,1.16-5.2.81a33.55,33.55,0,0,1,1.69,5.69c.13,1.63,0,6.39,0,6.39l-.78,1.39-.91.82s0-4.18-.9-5.11-4.54-3.95-4.54-3.95-.78,2.09-.52,2.55-3-2.67-3-2.67-.39,2.79-.13,3.14-3.24-2.67-3.24-2.67l-.39,3.25-2.33-3-.26,2.44s-2.08-2.56-2.08-3-.39,2.78.13,3.71-2.49-2.32-2.49-2.32l-1.4,3.6a15.65,15.65,0,0,1-1.55-3.13c0-.58-1.43,3.13-1.43,3.13l-1.81-3.13s-.65,3.48-.39,4.06-1.95-3-1.95-3v4L451.8,201v2.79l-1.43-1.74s-.26,3.94-.39,5.45a40.64,40.64,0,0,1-.69,4Z" transform="translate(3)"/></g><g class="cls-13"><path class="cls-17" d="M330,231.7a20.49,20.49,0,0,0,4.86-.88" transform="translate(3)"/><path class="cls-17" d="M321.78,215.49a3.84,3.84,0,0,1,4.22-.76" transform="translate(3)"/><path class="cls-17" d="M335.78,212.76s1.81-1.45,3.24-.58" transform="translate(3)"/><path class="cls-17" d="M394.11,243.36s3.5-3.37,6,.4" transform="translate(3)"/><path class="cls-17" d="M406.75,244.58S411,241.69,413,246" transform="translate(3)"/><path class="cls-18" d="M398.59,248.63s-1,2.18,0,3.59,4.31,1.59,5.26,1.59,3.1-2.22,2.9-3.29-8.16-1.89-8.16-1.89" transform="translate(3)"/><path class="cls-17" d="M454.78,211.56s1-4.86,6.22-2" transform="translate(3)"/><path class="cls-17" d="M469.17,209s1-6.27,6.22-1.56" transform="translate(3)"/><path class="cls-18" d="M463.14,215.49s0,4.41,1.95,5.17,6.61-.64,6.8-1.34-.78-4.59-.78-4.59Z" transform="translate(3)"/><path class="cls-20" d="M328,221.58c0,.87-.43,1.57-1,1.57s-1-.7-1-1.57.43-1.56,1-1.56,1,.7,1,1.56" transform="translate(3)"/><path class="cls-20" d="M340.64,219.82c0,.86-.36,1.55-.81,1.55s-.81-.69-.81-1.55.36-1.54.81-1.54.81.69.81,1.54" transform="translate(3)"/></g></g><g class="cls-21"><rect class="cls-6" x="545.56" y="167.2" width="217.55" height="158.02"/><polygon class="cls-6" points="654.33 88.75 545.56 167.2 763.1 167.2 654.33 88.75"/><rect class="cls-6" x="700.26" y="98.94" width="18.46" height="46.39"/><rect class="cls-18" x="570.17" y="196.24" width="72.08" height="71.66"/><rect class="cls-18" x="666.85" y="197" width="72.08" height="71.66"/><rect class="cls-6" x="604.01" y="189.83" width="3.96" height="88.63"/><rect class="cls-6" x="701.57" y="188.32" width="3.96" height="88.63"/><rect class="cls-6" x="554.35" y="230.94" width="103.28" height="3.39"/><rect class="cls-6" x="644" y="230.94" width="103.28" height="3.39"/></g></g></svg>