<svg xmlns="http://www.w3.org/2000/svg" xmlns:xlink="http://www.w3.org/1999/xlink" viewBox="0 0 1899.21 1275.59"><defs><style>.cls-1,.cls-17,.cls-5{fill:none;}.cls-2{fill:#e5d1c3;}.cls-3{fill:#c9efff;}.cls-4{clip-path:url(#clip-path);}.cls-5{stroke:#000;stroke-width:1.61px;}.cls-17,.cls-5{stroke-miterlimit:10;}.cls-6{fill:#e41e00;}.cls-7{fill:#de7fff;}.cls-8{fill:#76ce51;}.cls-9{fill:#8bae00;}.cls-10{fill:#78a0ff;}.cls-11{fill:#ffa93c;}.cls-12{fill:#ffd71a;}.cls-13{clip-path:url(#clip-path-4);}.cls-14{fill:#e0bf99;}.cls-15{fill:#efd5bb;}.cls-16{fill:#af855b;}.cls-17{stroke:#0d0000;stroke-width:1.92px;}.cls-18{fill:#fff;}.cls-19{fill:#7fd4ff;}.cls-20{fill:#0d0000;}.cls-21{clip-path:url(#clip-path-10);}</style><clipPath id="clip-path"><rect class="cls-1" x="-32.37" y="145.3" width="981.97" height="1325"/></clipPath><clipPath id="clip-path-4"><rect class="cls-1" x="172.63" y="96.3" width="1203" height="1536"/></clipPath><clipPath id="clip-path-10"><rect class="cls-1" x="903.63" y="155.3" width="1339.42" height="1442"/></clipPath></defs><title>bansamajamegrosse</title><g id="Calque_3" data-name="Calque 3"><rect class="cls-2" y="708.3" width="1899.21" height="567.3"/><rect class="cls-3" width="1899.21" height="859.3"/><g class="cls-4"><g class="cls-4"><path d="M248.07,973.92s40.41-22.82,52-65.31,7.42-67.68,7.42-67.68-17.32-55.87-13.2-78.69,10.51-36.2,13.92-53.51,7.53-36.2-7.32-48.79-47-37.77-47-37.77-17.32,6.29-33,0-52.79-30.69-52.79-30.69l-20.62-4.72s12.37-9.45,22.27-6.3S196.1,597,207.65,600.92s27.22,2.36,27.22,2.36-13.2-30.69-14-38.56-11.55-19.67-25.57-26-47.84-17.32-47.84-27.55,20.62,8.66,34.64,9.45,20.62-2.36,20.62-2.36S192,478.16,187,469.51a84.64,84.64,0,0,1-7.42-18.1s12.37,7.08,20.62,25.18,14.84,42.49,17.32,50.36,18.14,26.76,18.14,26.76,2.48,15.74,9.08,28.33,33,37,35.46,37,.83-27.54,7.43-35.41,10.72-23.61,5.77-32.26-18.15-30.69-18.15-40.92S291,475.8,291,475.8s-13.19,12.59-4.12,29.9,15.67,30.69,19,38.56,5.77,23.61.83,34.63S294.25,619,295.9,625.32s28.05,22.82,31.35,29.9,48.66-74,53.61-81.84-13.2-28.33-14.85-44.85-4.95-48-.82-66.11,10.72-28.32,10.72-28.32l.82,23.6s-1.65,7.87-2.47,23.61,12.37,60.59,18.14,65.31,30.52-17.31,38.77-33,14-37.77,14-52.72V409.7l6.6,6.3s4.95,18.1,4.95,29.11.82,40.14-4.13,52.73-8.24,21.24-8.24,21.24,28.86-7.87,42.89-22,42.06-49.58,42.89-55.09,0,18.1,0,18.1-5.78,19.68-20.62,36.2-42.07,37-48.67,40.13-25.57,9.45-37.11,23.61-34.64,51.15-42.07,65.32A142,142,0,0,0,371,652.07s45.36-18.1,69.28-24.39,32.17-20.46,37.12-33.84,8.25-39.35,8.25-39.35l9.89-6.29s-3.29,40.13-6.59,48.79,14.84-1.58,26.39-12.59,33.82-31.48,33.82-31.48v11.8s-43.72,48-52.79,54.3-30.52,17.31-30.52,17.31,38.77,3.15,50.31,4.73a70.12,70.12,0,0,1,20.62,6.29s-5.77,2.36-23.09,1.57-40.42-1.57-48.66-1.57-32.17,1.57-52.79,11-44.54,23.6-52.79,44.85S347,732.34,348.28,754.37s-.41,43.28,8.66,80.27,16.49,68.46,28,85,32.17,48.79,32.17,48.79-23.92,13.38-31.34,5.51-19.8-10.23-22.27-7.08-11.55,13.38-5,18.1-10.72,6.29-14,0S333,964.48,333,964.48s-20.62,17.31-42.89,17.31-42.06-7.87-42.06-7.87"/><path class="cls-5" d="M248.07,973.92s40.41-22.82,52-65.31,7.42-67.68,7.42-67.68-17.32-55.87-13.2-78.69,10.51-36.2,13.92-53.51,7.53-36.2-7.32-48.79-47-37.77-47-37.77-17.32,6.29-33,0-52.79-30.69-52.79-30.69l-20.62-4.72s12.37-9.45,22.27-6.3S196.1,597,207.65,600.92s27.22,2.36,27.22,2.36-13.2-30.69-14-38.56-11.55-19.67-25.57-26-47.84-17.32-47.84-27.55,20.62,8.66,34.64,9.45,20.62-2.36,20.62-2.36S192,478.16,187,469.51a84.64,84.64,0,0,1-7.42-18.1s12.37,7.08,20.62,25.18,14.84,42.49,17.32,50.36,18.14,26.76,18.14,26.76,2.48,15.74,9.08,28.33,33,37,35.46,37,.83-27.54,7.43-35.41,10.72-23.61,5.77-32.26-18.15-30.69-18.15-40.92S291,475.8,291,475.8s-13.19,12.59-4.12,29.9,15.67,30.69,19,38.56,5.77,23.61.83,34.63S294.25,619,295.9,625.32s28.05,22.82,31.35,29.9,48.66-74,53.61-81.84-13.2-28.33-14.85-44.85-4.95-48-.82-66.11,10.72-28.32,10.72-28.32l.82,23.6s-1.65,7.87-2.47,23.61,12.37,60.59,18.14,65.31,30.52-17.31,38.77-33,14-37.77,14-52.72V409.7l6.6,6.3s4.95,18.1,4.95,29.11.82,40.14-4.13,52.73-8.24,21.24-8.24,21.24,28.86-7.87,42.89-22,42.06-49.58,42.89-55.09,0,18.1,0,18.1-5.78,19.68-20.62,36.2-42.07,37-48.67,40.13-25.57,9.45-37.11,23.61-34.64,51.15-42.07,65.32A142,142,0,0,0,371,652.07s45.36-18.1,69.28-24.39,32.17-20.46,37.12-33.84,8.25-39.35,8.25-39.35l9.89-6.29s-3.29,40.13-6.59,48.79,14.84-1.58,26.39-12.59,33.82-31.48,33.82-31.48v11.8s-43.72,48-52.79,54.3-30.52,17.31-30.52,17.31,38.77,3.15,50.31,4.73a70.12,70.12,0,0,1,20.62,6.29s-5.77,2.36-23.09,1.57-40.42-1.57-48.66-1.57-32.17,1.57-52.79,11-44.54,23.6-52.79,44.85S347,732.34,348.28,754.37s-.41,43.28,8.66,80.27,16.49,68.46,28,85,32.17,48.79,32.17,48.79-23.92,13.38-31.34,5.51-19.8-10.23-22.27-7.08-11.55,13.38-5,18.1-10.72,6.29-14,0S333,964.48,333,964.48s-20.62,17.31-42.89,17.31S248.07,973.92,248.07,973.92Z"/></g><g class="cls-4"><path class="cls-6" d="M140.42,583.61a26.32,26.32,0,0,0-6-7.35A108.66,108.66,0,0,0,123,568s-6.76-3.93-8.94-5.09S104,558.2,104,558.2l-11.29-6.88s-6.08-4.65-8.21-3.86-3,3-1.46,5.85a49.69,49.69,0,0,0,4.49,7.21c1.62,2.08,7.49,5.7,7.49,5.7l7.37,3.95.67,2.17A4.8,4.8,0,0,1,99.28,576a91.81,91.81,0,0,1-13.44,1.81c-1.2,0-11.64-1.79-15.29-2.3s-17.18-1-17.18-1-7.36,1.26-8,1.81-2.12,2.34-1.45,3.73a8.84,8.84,0,0,0,2.78,2.72l5.93.36,5.11-.13,6.75.84,9.6,1.85,5.42,1.14,3,1.64.37,1.67-3.15.82s-10.08-.09-12.66-.23-14.68,1.38-14.68,1.38l-11.29,2s-2.77,1.91-3.23,3.1-1.51,3.9.87,4.55,8.08.54,8.08.54H57.76L68.6,603l12.92,1.09,1.36.87-10.36,2.52-11.36,2.17-10.47.92s-5.78.86-6.44,2.55a3,3,0,0,0,1,3.81,32.82,32.82,0,0,0,5.69,2c.78.08,8.72-.59,8.72-.59l12.47.16S82.51,617.18,84,617a25.85,25.85,0,0,1,5,.21s1.34,1.24-1.07,3.28-12,7.49-12,7.49l-10.23,4S61.24,634,60.84,635s.84,3.58.84,3.58a6.24,6.24,0,0,0,4.71.89c2.84-.54,20.72-7.54,20.72-7.54s6.8-2.43,10.92-3.67,19-3.13,20.23-3.67,7.76-2.27,11.08-4.58,7.12-4.81,9.34-10a24.7,24.7,0,0,0,1.91-10.13s2.17-10.81-.17-16.26"/><path class="cls-7" d="M288.7,599a25.52,25.52,0,0,0,3.79-8.61,99.57,99.57,0,0,0,2-13.48s.31-7.56.31-9.94-.59-10.71-.59-10.71l.81-12.75s1.3-7.34-.46-8.73-4.2-1-6.07,1.63a49.56,49.56,0,0,0-4.42,7.25c-1.12,2.36-1.57,9-1.57,9l0,8.06-1.66,1.62a5.15,5.15,0,0,1-5.2-1.34,83.79,83.79,0,0,1-8.2-10.32c-.55-1-4-10.58-5.32-13.86s-7.4-14.84-7.4-14.84-4.74-5.52-5.54-5.77-3.18-.63-4.13.61a8.35,8.35,0,0,0-1.13,3.64l2.56,5.12,2.6,4.19,2.51,6,3,8.9,1.59,5.07,0,3.3-1.35,1.12L252.48,552s-4.83-8.44-6-10.65-8.4-11.58-8.4-11.58l-7.32-8.44s-3.1-1.37-4.41-1.18-4.31.64-3.75,2.94,3.44,7,3.44,7l5.32,9.1,4.59,9.39,5.29,11.3-.13,1.56L233.81,554l-7.52-8.41-5.94-8.28s-3.59-4.41-5.47-4.13-3,1.54-3,2.64a28.61,28.61,0,0,0,.93,5.72c.3.69,4.78,7,4.78,7L223.49,559s6.29,8,7.25,9.18a23.53,23.53,0,0,1,2.22,4.25s-.49,1.72-3.53.71-12.69-6.37-12.69-6.37l-8.61-6.6s-4.08-2.69-5.2-2.52-2.87,2.43-2.87,2.43a5.55,5.55,0,0,0,1.48,4.36c1.87,2.11,17,13.61,17,13.61s5.53,4.49,8.67,7.32,12.12,14.32,13.2,15.08,5.86,5.36,9.58,7,7.87,3.59,13.71,2.91A27.87,27.87,0,0,0,273.89,607s10.95-3.45,14.81-8"/><path class="cls-7" d="M570.47,577.83a28.23,28.23,0,0,0,9.06,3.56,112.78,112.78,0,0,0,14.14,1.86s7.92.25,10.41.24,11.23-.62,11.23-.62l13.37.69s7.7,1.21,9.14-.48,1-4-1.74-5.78a53.67,53.67,0,0,0-7.62-4.18c-2.48-1-9.46-1.45-9.46-1.45h-8.45l-1.71-1.57a4.57,4.57,0,0,1,1.37-5A86.18,86.18,0,0,1,621,557.26c1.07-.53,11.06-3.9,14.5-5.16S651,545,651,545s5.77-4.55,6-5.32.64-3-.66-3.93a9.54,9.54,0,0,0-3.83-1.07l-5.35,2.47-4.38,2.51-6.31,2.43-9.31,2.89-5.31,1.55-3.46,0-1.18-1.28,2.32-2.19s8.82-4.65,11.14-5.74,12.08-8.08,12.08-8.08l8.81-7s1.42-3,1.21-4.21-.7-4.11-3.1-3.56-7.32,3.32-7.32,3.32l-9.51,5.12L623,527.25l-11.82,5.11-1.63-.11,7.72-7,8.78-7.22,8.64-5.72s4.6-3.45,4.3-5.24a3.21,3.21,0,0,0-2.79-2.87,34.78,34.78,0,0,0-6,.92c-.72.29-7.29,4.6-7.29,4.6l-11,5.71s-8.39,6-9.58,7A25.72,25.72,0,0,1,598,524.5s-1.81-.46-.76-3.37,6.6-12.15,6.6-12.15l6.87-8.24s2.8-3.91,2.62-5-2.58-2.72-2.58-2.72a6.23,6.23,0,0,0-4.56,1.43C604,496.27,592,510.75,592,510.75s-4.68,5.3-7.63,8.32-14.94,11.63-15.72,12.67-5.59,5.62-7.29,9.18-3.73,7.54-3,13.1a25,25,0,0,0,3.56,9.72s3.67,10.43,8.51,14.09"/><path class="cls-6" d="M385.87,541.43a26.28,26.28,0,0,0,5.69-7.61,100.15,100.15,0,0,0,5.11-12.72s2.05-7.3,2.6-9.62,1.91-10.57,1.91-10.57l3.75-12.27s3-6.88,1.58-8.6-3.86-1.89-6.3.31a50.08,50.08,0,0,0-6,6.13c-1.64,2.07-3.63,8.47-3.63,8.47l-1.9,7.85-2,1.23a5.09,5.09,0,0,1-4.77-2.4,82.2,82.2,0,0,1-5.6-11.8c-.3-1.11-1.47-11.16-2-14.64s-3.77-16-3.77-16-3.34-6.39-4.07-6.8-2.95-1.29-4.16-.28a8.49,8.49,0,0,0-2,3.32l1.3,5.53,1.57,4.63,1.05,6.42.84,9.31.38,5.28-.81,3.21-1.58.81-1.7-2.66s-2.75-9.25-3.34-11.65-5.51-13.06-5.51-13.06l-5.18-9.77s-2.71-2-4-2.08-4.35-.29-4.33,2.07,1.73,7.55,1.73,7.55l3.07,10,2.3,10.12,2.54,12.14-.49,1.5L342.77,486l-5.38-9.79-3.87-9.33s-2.49-5.06-4.38-5.18-3.29.87-3.56,1.94a29,29,0,0,0-.42,5.77c.13.74,3,7.82,3,7.82l3.35,11.47s4.27,9.17,4.93,10.48a22.58,22.58,0,0,1,1.19,4.62s-.88,1.57-3.61-.06-10.9-8.89-10.9-8.89l-6.86-8.25s-3.36-3.49-4.49-3.56-3.36,1.77-3.36,1.77a5.49,5.49,0,0,0,.42,4.56c1.35,2.45,13.41,16.85,13.41,16.85s4.35,5.55,6.76,9,8.5,16.52,9.37,17.49,4.48,6.46,7.72,8.85,6.85,5.17,12.7,5.74a28.28,28.28,0,0,0,10.73-1.1s11.48-1,16.31-4.72"/><path class="cls-8" d="M280.23,477.13a26.18,26.18,0,0,0,5.13-8,99.94,99.94,0,0,0,4.17-13s1.51-7.42,1.89-9.77,1.14-10.68,1.14-10.68l2.85-12.48s2.46-7.06.94-8.69-4-1.63-6.25.73a49.24,49.24,0,0,0-5.53,6.51c-1.49,2.17-3,8.68-3,8.68l-1.33,8-1.89,1.36a5.09,5.09,0,0,1-4.93-2.08,81.57,81.57,0,0,1-6.45-11.4c-.38-1.08-2.28-11-3-14.47S259,396.07,259,396.07s-3.79-6.16-4.55-6.52-3-1.08-4.17,0a8.53,8.53,0,0,0-1.71,3.44l1.71,5.43,1.9,4.52,1.51,6.33,1.52,9.23.76,5.25-.57,3.26-1.52.9L252,425.38s-3.42-9.05-4.17-11.4-6.45-12.67-6.45-12.67l-5.88-9.41s-2.85-1.81-4.17-1.81-4.37,0-4.18,2.36,2.28,7.42,2.28,7.42l3.79,9.77,3,9.95,3.41,11.94-.38,1.52-6.07-8.4-6.07-9.4-4.55-9.05s-2.84-4.89-4.74-4.89-3.22,1.09-3.41,2.17a29.41,29.41,0,0,0,0,5.79c.19.73,3.6,7.6,3.6,7.6l4.17,11.22s4.93,8.87,5.69,10.13a22.87,22.87,0,0,1,1.52,4.53s-.76,1.63-3.6.18-11.52-8.14-11.52-8.14L206.84,427s-3.6-3.26-4.74-3.26-3.22,2-3.22,2a5.49,5.49,0,0,0,.76,4.52c1.51,2.35,14.6,15.93,14.6,15.93s4.74,5.24,7.39,8.5,9.68,15.92,10.62,16.83,4.94,6.15,8.35,8.32,7.21,4.71,13.08,4.89a28.15,28.15,0,0,0,10.62-1.81s11.38-1.81,15.93-5.79"/><path class="cls-9" d="M465.63,535.62a28.44,28.44,0,0,0,9.36-2.74,108.25,108.25,0,0,0,12.16-7.14s6.28-4.61,8.2-6.13,8.25-7.29,8.25-7.29l10.79-7.57s6.74-3.74,6.73-5.92-1.86-3.73-5.2-3.4a53.59,53.59,0,0,0-8.66,1.39c-2.62.69-8.27,4.62-8.27,4.62l-6.52,5.14-2.36-.18a4.72,4.72,0,0,1-2.26-4.67,80.1,80.1,0,0,1,3.07-12.62c.46-1.06,5.94-9.72,7.75-12.78s7.21-14.91,7.21-14.91,1.42-7,1.1-7.76-1.52-2.73-3.12-2.63a9.25,9.25,0,0,0-3.67,1.5l-2.48,5.15L496,462.27l-3.25,5.7-5.26,7.88-3.07,4.42-2.68,2.08-1.77-.28.34-3.09s3.71-8.94,4.77-11.19S489,454.22,489,454.22l2.11-10.76s-.88-3.16-1.88-4-3.27-2.76-4.76-.87-3.43,7-3.43,7l-3.93,9.72-4.62,9.38-5.72,11.11-1.34.91,1.27-10.13,2-10.89,2.86-9.66s1.25-5.46-.17-6.65a3.4,3.4,0,0,0-4.07-.53,31.58,31.58,0,0,0-4,4.35c-.36.66-2.56,8-2.56,8l-4.65,11.05s-2.45,9.76-2.76,11.19a23.21,23.21,0,0,1-2,4.35s-1.7.74-2.83-2.14-3-13.38-3-13.38l-.19-10.53s-.45-4.72-1.3-5.43-3.8-.54-3.8-.54a5.75,5.75,0,0,0-2.56,3.87c-.5,2.72-.09,21.15-.09,21.15s-.08,6.93-.34,11.05-3.78,18.05-3.7,19.32-.57,7.73.49,11.51,2.15,8.08,6.43,11.92a27.41,27.41,0,0,0,9.22,5.35s9.79,5.82,16,5.7"/><path class="cls-10" d="M442.22,397.39a26.44,26.44,0,0,1-4.72-8,106.39,106.39,0,0,1-3.84-13s-1.4-7.42-1.75-9.77S430.86,356,430.86,356l-2.62-12.48s-2.27-7.06-.87-8.69,3.67-1.63,5.77.72a50.55,50.55,0,0,1,5.09,6.52c1.37,2.17,2.77,8.68,2.77,8.68l1.22,8L444,360a4.51,4.51,0,0,0,4.54-2.08,84.33,84.33,0,0,0,5.94-11.4c.35-1.09,2.1-11,2.8-14.47s4.54-15.75,4.54-15.75,3.5-6.15,4.19-6.51,2.8-1.08,3.85,0a8.83,8.83,0,0,1,1.57,3.44l-1.57,5.43-1.75,4.52-1.4,6.33-1.39,9.23-.7,5.25.52,3.25,1.4.91,1.74-2.53s3.15-9.05,3.85-11.4S478,321.57,478,321.57l5.42-9.41s2.62-1.81,3.84-1.81,4,0,3.85,2.36-2.1,7.41-2.1,7.41l-3.49,9.78-2.8,10-3.15,11.94.35,1.52,5.6-8.4,5.59-9.41,4.19-9s2.62-4.89,4.37-4.89a3,3,0,0,1,3.14,2.17,31,31,0,0,1,0,5.79c-.17.73-3.32,7.6-3.32,7.6l-3.84,11.22s-4.54,8.87-5.24,10.13a24.28,24.28,0,0,0-1.4,4.53s.7,1.63,3.32.18S503,355.05,503,355.05l6.86-7.79s3.32-3.25,4.37-3.25,3,2,3,2a5.9,5.9,0,0,1-.7,4.52c-1.4,2.35-13.45,15.92-13.45,15.92s-4.37,5.25-6.82,8.51-8.91,15.92-9.78,16.83-4.54,6.15-7.69,8.32-6.64,4.7-12.06,4.89a24.37,24.37,0,0,1-9.78-1.81s-10.49-1.81-14.68-5.79"/><path class="cls-9" d="M258.07,636.44a28.2,28.2,0,0,0-9.24-3.09,112.25,112.25,0,0,0-14.23-1.12s-7.92.15-10.41.3-11.18,1.2-11.18,1.2H199.62s-7.75-.8-9.09,1-.83,4.06,2.06,5.68a53.13,53.13,0,0,0,7.85,3.77c2.54.93,9.53,1,9.53,1l8.44-.45,1.79,1.48a4.59,4.59,0,0,1-1.08,5,86.62,86.62,0,0,1-10.31,8.43c-1,.58-10.83,4.46-14.19,5.9s-15.07,7.93-15.07,7.93-5.5,4.85-5.71,5.63-.47,3.06.89,3.89a9.46,9.46,0,0,0,3.88.86l5.2-2.74,4.23-2.73,6.16-2.76,9.13-3.37,5.22-1.82,3.45-.16,1.25,1.22-2.19,2.31s-8.54,5.1-10.79,6.31-11.61,8.7-11.61,8.7l-8.39,7.47s-1.25,3-1,4.28.93,4.06,3.3,3.39,7.11-3.7,7.11-3.7l9.21-5.61,9.55-4.94L220,684l1.64,0-7.32,7.44L206,699.08l-8.3,6.16s-4.4,3.68-4,5.45a3.21,3.21,0,0,0,2.95,2.72,33.47,33.47,0,0,0,5.93-1.22c.7-.33,7-5,7-5L220.16,701s8-6.48,9.17-7.46a24.45,24.45,0,0,1,4.31-2.37s1.83.36,1,3.32-5.9,12.47-5.9,12.47l-6.39,8.59s-2.57,4-2.33,5.11,2.72,2.58,2.72,2.58a6.21,6.21,0,0,0,4.48-1.66c2.08-1.92,13.21-17,13.21-17s4.37-5.53,7.14-8.7,14.26-12.39,15-13.47,5.26-5.9,6.76-9.54,3.29-7.72,2.23-13.24a25.35,25.35,0,0,0-4.11-9.52s-4.27-10.22-9.31-13.62"/><path class="cls-11" d="M122,521.29a28.52,28.52,0,0,1-9.88-.3,108.77,108.77,0,0,1-13.72-3.91s-7.32-2.94-9.58-4-9.91-5.07-9.91-5.07l-12.48-4.7s-7.55-1.95-8.08-4.11.91-4.16,4.27-4.7a54,54,0,0,1,8.86-.85c2.75,0,9.28,2.43,9.28,2.43l7.67,3.39,2.28-.79a4.84,4.84,0,0,0,1.07-5.19,81.26,81.26,0,0,0-6.13-11.67C85,481,77.44,473.8,74.9,471.25s-10.78-12.88-10.78-12.88-3.13-6.55-3-7.37.83-3.09,2.43-3.41a9.32,9.32,0,0,1,4,.54l3.71,4.45,2.82,4.09,4.61,4.8,7.11,6.42,4.11,3.57L93,472.83l1.66-.73-1.09-3s-5.86-7.88-7.45-9.82-7.23-12.38-7.23-12.38l-4.74-10.09s.09-3.34.86-4.43,2.54-3.56,4.47-2.08,5.1,6,5.1,6L90.89,445,97.75,453l8.36,9.5,1.54.55-3.74-9.68-4.63-10.25-5.19-8.79s-2.58-5.07-1.48-6.62a3.46,3.46,0,0,1,3.87-1.57,32.05,32.05,0,0,1,5,3.26c.51.56,4.49,7.21,4.49,7.21l7.29,9.72s4.82,9,5.48,10.34a23,23,0,0,0,3,3.78s1.86.3,2.26-2.84-.36-14-.36-14l-2.41-10.46s-.73-4.77-.07-5.7,3.6-1.51,3.6-1.51a5.75,5.75,0,0,1,3.48,3.16c1.16,2.56,5.31,20.88,5.31,20.88s1.79,6.82,3.07,10.81,8.17,16.85,8.41,18.14,2.46,7.48,2.36,11.49-.12,8.53-3.38,13.43a28.28,28.28,0,0,1-7.75,7.65s-8.19,8.27-14.28,9.75"/><path class="cls-11" d="M555.75,472.83a28.77,28.77,0,0,0,9.75.88,112.48,112.48,0,0,0,14.09-2.16s7.66-2,10-2.68,10.55-3.73,10.55-3.73l13-3.06s7.73-1,8.6-3-.23-4.13-3.44-5a55,55,0,0,0-8.57-1.87c-2.7-.32-9.49,1.25-9.49,1.25l-8.08,2.37-2.11-1a4.57,4.57,0,0,1-.21-5.14,83.6,83.6,0,0,1,7.88-10.54c.86-.8,9.39-6.81,12.29-9s12.64-11.16,12.64-11.16,4.12-6,4.13-6.77-.32-3.08-1.84-3.57a9.51,9.51,0,0,0-4,0l-4.36,3.85-3.42,3.62-5.29,4.09-8,5.36-4.61,3-3.31,1-1.52-.9,1.55-2.74s7-6.91,8.89-8.6,9.08-11.1,9.08-11.1l6.26-9.18s.45-3.23-.13-4.37-1.92-3.73-4.05-2.54-6,5.22-6,5.22l-7.53,7.55-8,7L580.79,418l-1.6.34,5.23-8.9,6.18-9.34,6.51-7.88s3.35-4.59,2.51-6.21a3.3,3.3,0,0,0-3.55-2,33.29,33.29,0,0,0-5.44,2.55c-.6.48-5.57,6.43-5.57,6.43l-8.72,8.52s-6.17,8.13-7,9.33a24.21,24.21,0,0,1-3.59,3.29s-1.86.07-1.76-3,2.59-13.46,2.59-13.46l4.05-9.8s1.48-4.52,1-5.5-3.3-1.88-3.3-1.88a6.06,6.06,0,0,0-3.92,2.64c-1.54,2.34-8.55,19.52-8.55,19.52S553,409,551.06,412.75s-10.72,15.3-11.16,16.51-3.62,6.93-4.16,10.81-1.25,8.25,1.17,13.36a25.93,25.93,0,0,0,6.38,8.3s6.71,8.95,12.46,11.1"/><path class="cls-12" d="M383.76,619.16a25.1,25.1,0,0,1,1.22-9.27,101,101,0,0,1,5.27-12.66s3.67-6.7,4.91-8.76,6.1-9,6.1-9L407.21,568s2.7-7,5-7.35,4.17,1.1,4.41,4.29a48.08,48.08,0,0,1,.05,8.38c-.26,2.58-3.34,8.57-3.34,8.57l-4.18,7,.6,2.19a5.08,5.08,0,0,0,5.2,1.31,90.34,90.34,0,0,0,12.5-5.07c1-.62,9-7.27,11.84-9.5s14.15-9.36,14.15-9.36,7-2.55,7.81-2.38,3.08,1,3.26,2.48a8.46,8.46,0,0,1-.92,3.7l-4.89,3.23-4.44,2.4L448.89,582l-7.23,6.3-4,3.65L436,594.79l.59,1.61,3.14-.85s8.58-5,10.71-6.42,13.32-6.06,13.32-6.06l10.75-3.85s3.4.28,4.44,1.07,3.4,2.6,1.71,4.32-6.63,4.44-6.63,4.44l-9.35,5.38-8.88,6-10.48,7.29-.7,1.42,10.23-3,10.9-3.73,9.47-4.37s5.41-2.12,6.89-1,1.81,2.77,1.25,3.73a31.69,31.69,0,0,1-3.79,4.52c-.63.45-7.79,3.79-7.79,3.79l-10.59,6.28s-9.65,4-11.08,4.53a24.94,24.94,0,0,0-4.14,2.63s-.47,1.72,2.69,2.28,14.32.5,14.32.5l10.9-1.65s4.94-.4,5.83.28,1.22,3.47,1.22,3.47a5.9,5.9,0,0,1-3.56,3.09c-2.72.93-21.81,3.74-21.81,3.74s-7.14,1.28-11.34,2.24-18,6.69-19.3,6.83-7.87,1.87-12,1.53-8.7-.61-13.41-4a26,26,0,0,1-7.1-7.73s-7.69-8.19-8.64-14"/><path class="cls-12" d="M342.35,429.71A28,28,0,0,1,334,425a109.25,109.25,0,0,1-10.15-9.51s-5.06-5.8-6.58-7.69-6.4-8.81-6.4-8.81l-8.77-9.63s-5.66-5.06-5.23-7.16,2.5-3.19,5.61-2.16a52.43,52.43,0,0,1,7.95,3.23c2.35,1.23,6.95,6.24,6.95,6.24l5.18,6.36,2.28.34a4.53,4.53,0,0,0,3.06-4,81.51,81.51,0,0,0-.43-12.82c-.24-1.12-3.74-10.65-4.87-14s-3.92-15.94-3.92-15.94,0-7.06.48-7.72,2-2.3,3.49-1.86a9.3,9.3,0,0,1,3.18,2.24l1.35,5.5.72,4.8,2,6.2,3.45,8.74,2.05,4.91,2.14,2.59,1.73.12.29-3.06s-1.77-9.42-2.34-11.81-1.08-13.93-1.08-13.93l.11-10.84s1.45-2.84,2.56-3.44,3.65-1.94,4.69.2,1.89,7.49,1.89,7.49l1.83,10.22,2.54,10L353,371.82l1.1,1.16.78-10,.28-10.92-.83-9.93s-.12-5.53,1.47-6.37a3.25,3.25,0,0,1,4,.37,31,31,0,0,1,3,5.06c.21.71.87,8.24.87,8.24L365.82,361s.41,9.94.42,11.38a23.39,23.39,0,0,0,1,4.63s1.47,1.08,3.11-1.45,5.47-12.25,5.47-12.25l2.25-10.1s1.35-4.46,2.3-5,3.71.3,3.71.3a5.83,5.83,0,0,1,1.68,4.29c-.07,2.73-4.07,20.41-4.07,20.41S380.45,380,379.89,384s.05,18.21-.28,19.42-1,7.57-2.72,11-3.62,7.31-8.45,10.09a25.84,25.84,0,0,1-9.8,3.16s-10.44,3.49-16.29,2"/><path class="cls-10" d="M543.49,664.59a25.2,25.2,0,0,0,2.37,9.06,100.84,100.84,0,0,0,6.83,12s4.49,6.23,6,8.13,7.19,8.25,7.19,8.25l7.35,10.68s3.55,6.62,5.84,6.73,4-1.57,3.84-4.77a47.24,47.24,0,0,0-1-8.33c-.58-2.53-4.39-8.13-4.39-8.13l-5-6.47.31-2.25a5.06,5.06,0,0,1,5-1.9,91,91,0,0,1,13.05,3.59c1.08.5,9.85,6.18,13,8.07S619,706.89,619,706.89s7.26,1.72,8.06,1.46S630,707,630,705.51a8.35,8.35,0,0,0-1.38-3.57l-5.25-2.64-4.72-1.88-5.8-3.4-8-5.43-4.46-3.15-2-2.67.39-1.67,3.22.48s9.16,4,11.45,5.14,14,4.48,14,4.48l11.16,2.58s3.35-.67,4.27-1.57,3.06-3,1.17-4.49-7.15-3.64-7.15-3.64l-10-4.26-9.57-4.9-11.32-6-.88-1.33,10.54,1.75L627,671.75l9.95,3.24s5.65,1.49,7,.19,1.44-2.95.77-3.84a31.62,31.62,0,0,0-4.34-4.06c-.67-.38-8.21-2.86-8.21-2.86l-11.31-5s-10.09-2.85-11.57-3.22a25.27,25.27,0,0,1-4.45-2.13s-.68-1.66,2.39-2.58,14.16-2.15,14.16-2.15l11,.38s5-.18,5.75-1,.77-3.59.77-3.59a5.94,5.94,0,0,0-3.91-2.65c-2.83-.61-22.14-1.2-22.14-1.2s-7.25-.45-11.55-.92-18.68-4.56-20-4.55-8.06-1-12.07-.15-8.57,1.62-12.82,5.5a25.55,25.55,0,0,0-6.09,8.5s-6.61,9-6.82,14.9"/></g></g><g class="cls-13"><g class="cls-13"><path d="M711.71,882.18s1,18.25,4,33.3,14.15,51.09,13.14,54.74-10,14.13-8.56,16.87,1.48,9.12,5,9.12,22.23-10.94,27.28-15.05,4-26.45,7.07-36.94,11.12-26,11.12-26,7.07,6.38,12.12,24.63,3.54,26.91,7.58,32.38,8.59,10.49,12.63,13.23,12.63,5,15.67,4.56,7.57-5,7.57-5a46.81,46.81,0,0,1-7.57-17.78c-2-10.5-3.54-19.62-2.53-26s3-24.18,3-33.76-1-31.92-3-34.66-4-11.5-4-11.5Z"/><path class="cls-14" d="M664.72,824.71s-17.18-4.56-19.2-2.28-1,7.3,5.06,10,18.69,0,18.69,0Z"/><path class="cls-14" d="M837.51,790s10.1-3.8,13.64-2.08,4.55,4.49,0,8A37,37,0,0,1,840.54,801Z"/><path class="cls-15" d="M1061.32,791s-8.08,3.27-11.11,5.45-6.07,3.26,0,5.44,15.66,0,15.66,0Z"/><path class="cls-15" d="M1209.86,775.45l2.52,12s14.15-.25,16.17-3.72,5-6.26,0-6.26-18.69-2-18.69-2"/><path class="cls-9" d="M1098.71,903.62s1.51,26,0,44.7-3,28.28-2.53,33.75-3.7,8.67,3.2,6.39,13.48-17.33,16.51-25.54,10.1-32.66,10.1-32.66l3.54-23.45Z"/><path class="cls-9" d="M1155.8,907.27s5.56,26.29,9.09,39.14,4.55,29.73,8.59,34.3,11.12,8.49,11.12,8.49l2.52-36.77-3-60.67Z"/><path class="cls-15" d="M1116.55,724.82s2.35,7.3,0,9.58-8,4.11-8,4.11l-3.29,3.19s.21,6.84,12.32,12.32,30.43-5.93,30.43-5.93l4.23-10.49-11.74-4.11-5.64-11Z"/><path class="cls-16" d="M870.85,784s-14.62-3.69-16.66-2.6-.51,5.63,3.53,7.89a115.68,115.68,0,0,0,10.61,4.92Z"/><path class="cls-16" d="M1026.46,801l5,11.4s10.11-5.93,12.13-7.76a2.36,2.36,0,0,0,0-3.64,12.81,12.81,0,0,0-8.14-2.28,38.3,38.3,0,0,0-9,2.28"/><path class="cls-17" d="M764.76,744.92s8.08-.48,12.63-2.31"/><path class="cls-17" d="M743.54,702.47s3.74-4.43,11-2"/><path class="cls-17" d="M779.91,695.33s4.72-3.8,8.42-1.52"/><path class="cls-17" d="M931.48,775.45s9.09-8.81,15.66,1.07"/><path class="cls-17" d="M964.32,778.65s11.11-7.56,16.17,3.75"/><path class="cls-18" d="M943.1,789.25s-2.53,5.71,0,9.41,11.21,4.16,13.69,4.16,8-5.82,7.53-8.61-21.22-5-21.22-5"/><path class="cls-17" d="M1089.11,692.19s2.53-12.72,16.17-5.32"/><path class="cls-17" d="M1126.5,685.6s2.52-16.42,16.16-4.11"/><path class="cls-18" d="M1110.83,702.47s0,11.56,5.06,13.54,17.17-1.68,17.68-3.5-2-12-2-12Z"/></g><g class="cls-13"><path class="cls-10" d="M742,759s5.05,6.39,0,8.21-13.13,2.74-18.19,9.13-22.73,24.63-30.31,31-24.76,16.42-28.29,16.42-2,1.83,0,6.84,9.09,11,9.09,11,35.37-12.31,41.93-18.7-3.53,11.4-5.55,24.63-2,35.12-2,35.12l1,9.58s39.91,5,59.61,2.28,48-18.24,48-18.24-9.6-32.85-13.64-42.42-10.61-22.35-10.61-22.35,15.16,1.82,26.78-.92,23.74-9.12,25.76-11.85S839,787.31,839,787.31s-9.09,3.2-23.74.91-29.81-15.5-32.34-17.33-19.19-6.38-19.19-6.38L762.23,759Z"/><path class="cls-6" d="M866.31,794.61s13.64,3.19,22.23,14.14,11.62,9.94,11.62,18.43-1.52,28.35-3.54,37.12-3,26.55-1.52,38.87,5.56,37.4,8.59,48.34a100.86,100.86,0,0,1,3,23.27s0,13.68,3,15.5,10.1-2.28,13.13-10,3-23.26,7.07-33.75,17.18-31,17.18-31,7.07,10.95,10.11,22.35,3,29.19,4,34.67-1,12.31,3,16,4,7.75,12.12-6.84,12.64-19.16,15.67-34.21,6.56-26.91,6.56-43.79a237.07,237.07,0,0,0-3-37.4c-1-5.93-5-17.79-3-22.81s3.54-9.67,16.17-16.23A280.8,280.8,0,0,0,1034,811.94l-3.54-11.86s-30.81,4.11-39.4,6.85-25.77,6.84-35.37,3.64-37.39-12.77-37.39-12.77l-9.09-7.29s-13.14-5.48-22.74-7.3-20.2,0-20.2,0Z"/><path class="cls-8" d="M1110.83,737.6s-8.08,3.19-13.64,8.66-9.6,17.33-13.13,22.81-17.18,18.7-19.71,19.61l-7.57,2.74,6.06,10s12.63,1.83,21-2.73,13.39-7.3,13.39-7.3-.5,19.61-7.07,32.84-18.69,37.4-18.69,37.4l-20.21,25.5s9.09,8.71,14.65,13.73a32.81,32.81,0,0,0,19.7,7.75c5.56,0,12.63-.91,19.71,0s11.11,5,22.73,9.12,28.8,3.65,36.38,0,13.64-10,21.72-14.59,18.7-10.49,21.73-10-34.36-103.08-34.36-107.19,26.62,3.2,34.53,1.83l7.91-1.37-2.53-10.95s-28.29-14.14-36.88-21.89-16.67-12.32-21.72-16a42.92,42.92,0,0,0-8.59-5s-2.53,10.49-12.63,12.77-14.65-.91-14.65-.91Z"/></g><g class="cls-13"><path class="cls-14" d="M795.74,689.55s-.33,7.3,0,13.08,3.71,11.86,4,16.11-.67,22.5-9.09,29.5-22.23,13.68-22.23,13.68-24.59,0-35-2.89-23.91-20.83-23.91-20.83l-7.08-12.46V704.45l17.18-13.38,19.87-16.72,24.26-2.44,19.19,3.65,13.14,10Z"/><path class="cls-16" d="M916,761.92s-3.37,11.86-2.7,17.94,1.63,15.19,3.34,16.57,7.1,7.45,15.19,10.19,20.54,6.08,20.54,6.08,14.82,3.65,26.61-5.77,13.81-19.27,13.81-19.27l2.7-11.45V765.27l-2.36-9.77-5.06-12.13L977,737s-12.13-3.35-13.47-4.41-13.31-2.89-13.31-2.89l-12.63,2.89-11.79,4.1-5,6.39Z"/><path class="cls-15" d="M1071.26,666.75s0,12.77,2,20.37,5,19.46,8.76,23.72,6.73,7.9,13.81,11.7,16.5,4.41,16.5,4.41,29.3,0,34.36-3,11.78-9.12,13.8-14.59,4.72-16.12,4-21.29-3.37-18.55-3.37-18.55L1157.82,657l-5.73-9.43s-26.6-4.56-27.95-4.56-25.26,3-26.61,3-26.27,20.68-26.27,20.68"/></g><g class="cls-13"><path class="cls-15" d="M1077,692.29s-6.06-.91-7.41,2.73-2.69,8.82,2,11.86a12.71,12.71,0,0,0,9.77,1.52v-7.91Z"/><path class="cls-15" d="M1160.18,679.21a7.58,7.58,0,0,1,6.73,0c3.37,1.83,7.08,4,6.74,6.39s-1.68,6.69-4.38,7.9a30.48,30.48,0,0,1-6.4,1.83Z"/><path class="cls-16" d="M917.67,768.31s-2.69-2.43-5-1.52a7.54,7.54,0,0,0-4.38,4,6.59,6.59,0,0,0,1.68,7,22.14,22.14,0,0,0,5.06,3.35Z"/><path class="cls-16" d="M992.78,776.52l-1.68,12.62s2,.76,4.71-1.68a8.26,8.26,0,0,0,2.7-6.38c0-.91-2-4.56-2-4.56Z"/><path class="cls-19" d="M763,718.83c.75,6-2.38,11.23-7,11.7s-9-4-9.73-10,2.37-11.22,7-11.7,9,4,9.73,10"/><path class="cls-19" d="M795,715.32c.71,5.67-1.71,10.58-5.4,11s-7.28-3.91-8-9.59,1.7-10.58,5.4-11,7.27,3.91,8,9.59"/><path class="cls-12" d="M770.48,682.86s-5.39,6.79-9.43,9.33a24.05,24.05,0,0,1-8.42,3.14s3.37-8.82,3.37-11.25-8.09,8.11-8.09,8.11l-3.36,3.14-2-6.23-6.07,9.57-2-7.9-2,12.16-3.7-7.3s-1.69,9.89,0,13.15-8.42-4-8.42-4,.33,11.25,2.35,13.07-7.07-1.82-7.07-1.82l5,8.81s-4.71-11.55-8.42-8.81-7.41,4.25-7.07,8.81,0,7.3,2.69,9.13,6.74,8.51,6.74,8.51l5.39,6.39,4,3.65s-4.71,11.25-6.73,11.86.67-2.44.67-5.33-8.08,0-8.08,0,3.7-5.32,3.7-7.75-8.42,3-10.44,2.13,5-4.87,5.73-7-9.1,2.74-11.12.31,4-3,5.39-6.08S693,740.33,690,738.2s7.08-.3,8.42-2.12-9.09-2.44-11.11-4.87a46.68,46.68,0,0,0-4-4.26s4,2.13,7.41,0a11,11,0,0,0,4.38-5.77s-3.71-2.36-6.74-1.49S677.52,716,677.52,716l-2.69-7.23s1.34,2.67,5.72,3.27,8.42-3.27,8.42-3.27-4.38-1.9-5.72-3.11,4.38-.61,5.72-1.83,3.37-3.35,3.37-3.35-6.06-2.43-7.07-3.34-3-5-3-5,4.38,2.23,7.41,1.92a15.59,15.59,0,0,0,5.72-1.92s1.35-4.46,0-8.11-3.37-7.91-3.37-7.91a3.73,3.73,0,0,1,4.38,2.13c1.69,3,3.71,2.43,5.73,2.43s7.75-2.73,7.75-2.73-7.42-3.35-8.09-5.17,1.35,1.82,4.72,0,8.08-4.26,8.08-4.26-2.36-5.78-2.36-7v-3.65s0,1.21,4,3.34,9.09,2.74,11.11,1.52,3.37-1.52,3.7-4.86,4.72-8.21,4.72-8.21l4.72-3s-4,2.73-2.36,5.77,6.06,4.56,6.06,4.56,4.72-5.77,8.76-7.29a99.34,99.34,0,0,1,11.79-3s-5.06,4.25-5.06,6.08A19.7,19.7,0,0,1,759,657s3.37,2.13,6.74.92a46.72,46.72,0,0,1,8.36-1.83l6.79-3s-4.38,4-4.38,6.08,1.69,5.78,1.69,5.78.34,1.83,4.72,1.52,9.42-3.34,9.42-3.34l2.7-2.74v4.86c0,1.83,1.68,5.48,0,6.69a26.77,26.77,0,0,0-3.71,3.65,30.56,30.56,0,0,0,8.09,4.26c4,1.22,6.06,3.65,7.07,3.35s-7.41.91-7.41.91,4.21,7.7,7.5,8.11-7.5,0-7.5,0,3.37,5.57,5,5.57-12.8-5.78-13.81-9.12S783,682,783,682v7.9L777.22,681Z"/><path d="M914.64,764.43V753.1l3-4.86v-5.78l3-6.08,2.7-5.17,4.38-3h3.36l4.38-3.95h3.37V716a12.08,12.08,0,0,0,2.36,5.77c2,2.44,6.73,2.44,6.73,2.44s15.16,1.21,20.89,2.73,9.09,1.22,13.47,4.26,10.1,7.91,11.11,10.64,6.07,9.73,5.06,12.17,1.34,6.84,0,10.41a65.12,65.12,0,0,0-2.36,9.4l-3.37-7.25v-5.27l-1.68-6.08-2-4.56-3.37,2.13-2-3.34-3.37-3.05-3-1.49-3.37-3.07-1.35,1.83L969.2,740l-2,1.82-4.38-4.25-3.37,2.12-2.64-4.56-3.42,3-3.2-4.25-1.85,5.77-4-3.34-1.69,4.87-3-3-1.34,4.26-3.37-2.74-2,2.74-5.39-3v5.5l-2.7-1.24,1.69,5.47a2.69,2.69,0,0,0-3.37,1.22c-1.35,2.13-8.42,14.06-8.42,14.06"/><path class="cls-11" d="M1071.59,692.19s-6.06-8.82-7.4-13.79-3.37-15-2.7-18-.13-7.91-.13-7.91-16.37-.6-19.4,1.83,9.26-6.69,9.26-6.69l-17.18-7,20.71-1.52-6.06-11.26,17.18,7,2.43-12.16s5.39,10,6.53,13.07,11.92-6.69,23.37-8.82a113.23,113.23,0,0,1,21.56-1.82s14.48.3,18.86,1.21,1.68-9.42,5.05-11.55,5.39-1.83,5.39-1.83a6.16,6.16,0,0,0-2.35,5.17c0,3.65.33,8.82.33,8.82a18,18,0,0,1,8.76-9.43,71,71,0,0,1,11.12-4.57s-7.42,8.53-6.74,11,5,1.82,11.11,2.13a14.06,14.06,0,0,1,10.44,5.47,12.4,12.4,0,0,1,2,4.56s-6.73-5.77-11.45-3.34-8.42,3.95-8.42,3.95l9.79,3-13.49,2.13s4,10.64,4.38,14.9,0,16.73,0,16.73l-2,3.64-2.35,2.13s0-10.94-2.36-13.38S1146,655.5,1146,655.5s-2,5.47-1.35,6.68-7.74-7-7.74-7-1,7.3-.34,8.21-8.42-7-8.42-7l-1,8.51-6.06-7.9-.68,6.38s-5.39-6.69-5.39-7.9-1,7.29.34,9.73-6.48-6.09-6.48-6.09l-3.62,9.43s-4-6.69-4-8.21-3.71,8.21-3.71,8.21l-4.72-8.21s-1.68,9.12-1,10.64-5-7.9-5-7.9v10.34l-5.39-8.82v7.3l-3.7-4.57s-.68,10.34-1,14.3a104.53,104.53,0,0,1-1.82,10.54Z"/></g><g class="cls-13"><path class="cls-17" d="M764.76,744.92s8.08-.48,12.63-2.31"/><path class="cls-17" d="M743.54,702.47s3.74-4.43,11-2"/><path class="cls-17" d="M779.91,695.33s4.72-3.8,8.42-1.52"/><path class="cls-17" d="M931.48,775.45s9.09-8.81,15.66,1.07"/><path class="cls-17" d="M964.32,778.65s11.11-7.56,16.17,3.75"/><path class="cls-18" d="M943.1,789.25s-2.53,5.71,0,9.41,11.21,4.16,13.69,4.16,8-5.82,7.53-8.61-21.22-5-21.22-5"/><path class="cls-17" d="M1089.11,692.19s2.53-12.72,16.17-5.32"/><path class="cls-17" d="M1126.5,685.6s2.52-16.42,16.16-4.11"/><path class="cls-18" d="M1110.83,702.47s0,11.56,5.06,13.54,17.17-1.68,17.68-3.5-2-12-2-12Z"/><path class="cls-20" d="M759.7,718.44c0,2.27-1.13,4.1-2.52,4.1s-2.53-1.83-2.53-4.1,1.13-4.11,2.53-4.11,2.52,1.84,2.52,4.11"/><path class="cls-20" d="M792.54,713.82c0,2.24-.94,4-2.1,4s-2.11-1.81-2.11-4,.95-4.05,2.11-4.05,2.1,1.81,2.1,4.05"/></g></g><g class="cls-21"><rect class="cls-6" x="1297.39" y="634.88" width="556.89" height="358.83"/><polygon class="cls-6" points="1575.84 456.75 1297.39 634.88 1854.28 634.88 1575.84 456.75"/><rect class="cls-6" x="1693.4" y="479.87" width="47.25" height="105.34"/><rect class="cls-18" x="1360.4" y="700.83" width="184.5" height="162.72"/><rect class="cls-18" x="1607.9" y="702.54" width="184.5" height="162.72"/><rect class="cls-6" x="1447.02" y="686.27" width="10.13" height="201.26"/><rect class="cls-6" x="1696.78" y="682.84" width="10.13" height="201.26"/><rect class="cls-6" x="1319.89" y="779.62" width="264.38" height="7.71"/><rect class="cls-6" x="1549.4" y="779.62" width="264.38" height="7.71"/></g></g></svg>