<svg xmlns="http://www.w3.org/2000/svg" xmlns:xlink="http://www.w3.org/1999/xlink" viewBox="0 0 799.06 357"><defs><style>.cls-1,.cls-17,.cls-5{fill:none;}.cls-2{fill:#e5d1c3;}.cls-3{fill:#c9efff;}.cls-4{clip-path:url(#clip-path);}.cls-5{stroke:#000;stroke-width:0.69px;}.cls-17,.cls-5{stroke-miterlimit:10;}.cls-6{fill:#e41e00;}.cls-7{fill:#de7fff;}.cls-8{fill:#76ce51;}.cls-9{fill:#8bae00;}.cls-10{fill:#78a0ff;}.cls-11{fill:#ffa93c;}.cls-12{fill:#ffd71a;}.cls-13{clip-path:url(#clip-path-4);}.cls-14{fill:#e0bf99;}.cls-15{fill:#efd5bb;}.cls-16{fill:#af855b;}.cls-17{stroke:#0d0000;stroke-width:0.74px;}.cls-18{fill:#fff;}.cls-19{fill:#7fd4ff;}.cls-20{fill:#0d0000;}.cls-21{clip-path:url(#clip-path-10);}</style><clipPath id="clip-path" transform="translate(-20.94 -81)"><rect class="cls-1" x="20.94" y="44" width="407.06" height="580"/></clipPath><clipPath id="clip-path-4" transform="translate(-20.94 -81)"><rect class="cls-1" x="126" y="65" width="463" height="586.57"/></clipPath><clipPath id="clip-path-10" transform="translate(-20.94 -81)"><rect class="cls-1" x="412.68" y="37" width="523.24" height="635.03"/></clipPath></defs><title>bansamajame</title><g id="Calque_4" data-name="Calque 4"><rect class="cls-2" y="5" width="799.06" height="352"/></g><g id="Calque_5" data-name="Calque 5"><rect class="cls-3" width="799.06" height="284.28"/></g><g id="Calque_1" data-name="Calque 1"><g class="cls-4"><g class="cls-4"><path d="M137.19,406.72s16.75-10,21.54-28.59,3.08-29.62,3.08-29.62-7.18-24.46-5.47-34.45,4.35-15.85,5.76-23.42,3.13-15.85-3-21.36-19.49-16.54-19.49-16.54-7.18,2.76-13.67,0S104,239.31,104,239.31l-8.55-2.07s5.13-4.13,9.23-2.75,10.94,7.23,15.73,8.95,11.28,1,11.28,1-5.47-13.44-5.81-16.88-4.79-8.61-10.6-11.37-19.83-7.58-19.83-12,8.55,3.78,14.36,4.13,8.55-1,8.55-1-4.45-17.57-6.5-21.36a38.58,38.58,0,0,1-3.08-7.92s5.13,3.1,8.55,11,6.16,18.6,7.18,22,7.52,11.72,7.52,11.72a48.65,48.65,0,0,0,3.76,12.4c2.74,5.51,13.68,16.19,14.71,16.19s.34-12.06,3.07-15.5,4.45-10.34,2.4-14.13-7.53-13.43-7.53-17.91,6.5-15.16,6.5-15.16a11.56,11.56,0,0,0-1.71,13.09c3.76,7.58,6.5,13.44,7.86,16.88s2.4,10.34.35,15.16-5.13,17.57-4.45,20.32,11.63,10,13,13.09,20.18-32.38,22.23-35.82-5.47-12.4-6.16-19.64-2.05-21-.34-28.93a43.24,43.24,0,0,1,4.45-12.4l.34,10.33a78.72,78.72,0,0,0-1,10.34c-.34,6.89,5.13,26.52,7.52,28.59s12.65-7.58,16.07-14.47,5.82-16.54,5.82-23.08V159.74l2.73,2.76s2.05,7.92,2.05,12.74.34,17.57-1.71,23.08-3.42,9.3-3.42,9.3,12-3.44,17.78-9.64,17.44-21.71,17.78-24.12,0,7.93,0,7.93a46.73,46.73,0,0,1-8.55,15.84c-6.15,7.23-17.43,16.19-20.17,17.57s-10.6,4.13-15.38,10.33-14.36,22.39-17.44,28.59a64.33,64.33,0,0,0-4.45,11.71s18.81-7.92,28.72-10.67,13.34-9,15.39-14.82,3.42-17.22,3.42-17.22l4.1-2.75s-1.37,17.56-2.73,21.35,6.15-.69,10.94-5.51,14-13.78,14-13.78v5.17s-18.13,21-21.89,23.77S227.45,259,227.45,259s16.07,1.37,20.86,2.06a28,28,0,0,1,8.55,2.76s-2.4,1-9.58.69-16.75-.69-20.17-.69-13.33.69-21.88,4.82-18.46,10.33-21.88,19.63-5.13,12.75-4.62,22.39-.17,18.95,3.59,35.14,6.84,30,11.63,37.2,13.33,21.36,13.33,21.36-9.91,5.85-13,2.41-8.21-4.48-9.23-3.1-4.79,5.86-2.05,7.92-4.45,2.76-5.82,0-4.78-9-4.78-9-8.55,7.57-17.78,7.57a50.81,50.81,0,0,1-17.44-3.44" transform="translate(-20.94 -81)"/><path class="cls-5" d="M137.19,406.72s16.75-10,21.54-28.59,3.08-29.62,3.08-29.62-7.18-24.46-5.47-34.45,4.35-15.85,5.76-23.42,3.13-15.85-3-21.36-19.49-16.54-19.49-16.54-7.18,2.76-13.67,0S104,239.31,104,239.31l-8.55-2.07s5.13-4.13,9.23-2.75,10.94,7.23,15.73,8.95,11.28,1,11.28,1-5.47-13.44-5.81-16.88-4.79-8.61-10.6-11.37-19.83-7.58-19.83-12,8.55,3.78,14.36,4.13,8.55-1,8.55-1-4.45-17.57-6.5-21.36a38.58,38.58,0,0,1-3.08-7.92s5.13,3.1,8.55,11,6.16,18.6,7.18,22,7.52,11.72,7.52,11.72a48.65,48.65,0,0,0,3.76,12.4c2.74,5.51,13.68,16.19,14.71,16.19s.34-12.06,3.07-15.5,4.45-10.34,2.4-14.13-7.53-13.43-7.53-17.91,6.5-15.16,6.5-15.16a11.56,11.56,0,0,0-1.71,13.09c3.76,7.58,6.5,13.44,7.86,16.88s2.4,10.34.35,15.16-5.13,17.57-4.45,20.32,11.63,10,13,13.09,20.18-32.38,22.23-35.82-5.47-12.4-6.16-19.64-2.05-21-.34-28.93a43.24,43.24,0,0,1,4.45-12.4l.34,10.33a78.72,78.72,0,0,0-1,10.34c-.34,6.89,5.13,26.52,7.52,28.59s12.65-7.58,16.07-14.47,5.82-16.54,5.82-23.08V159.74l2.73,2.76s2.05,7.92,2.05,12.74.34,17.57-1.71,23.08-3.42,9.3-3.42,9.3,12-3.44,17.78-9.64,17.44-21.71,17.78-24.12,0,7.93,0,7.93a46.73,46.73,0,0,1-8.55,15.84c-6.15,7.23-17.43,16.19-20.17,17.57s-10.6,4.13-15.38,10.33-14.36,22.39-17.44,28.59a64.33,64.33,0,0,0-4.45,11.71s18.81-7.92,28.72-10.67,13.34-9,15.39-14.82,3.42-17.22,3.42-17.22l4.1-2.75s-1.37,17.56-2.73,21.35,6.15-.69,10.94-5.51,14-13.78,14-13.78v5.17s-18.13,21-21.89,23.77S227.45,259,227.45,259s16.07,1.37,20.86,2.06a28,28,0,0,1,8.55,2.76s-2.4,1-9.58.69-16.75-.69-20.17-.69-13.33.69-21.88,4.82-18.46,10.33-21.88,19.63-5.13,12.75-4.62,22.39-.17,18.95,3.59,35.14,6.84,30,11.63,37.2,13.33,21.36,13.33,21.36-9.91,5.85-13,2.41-8.21-4.48-9.23-3.1-4.79,5.86-2.05,7.92-4.45,2.76-5.82,0-4.78-9-4.78-9-8.55,7.57-17.78,7.57A50.81,50.81,0,0,1,137.19,406.72Z" transform="translate(-20.94 -81)"/></g><g class="cls-4"><path class="cls-6" d="M92.57,235.86a11.57,11.57,0,0,0-2.51-3.21A44.17,44.17,0,0,0,85.35,229s-2.8-1.72-3.7-2.23-4.19-2.07-4.19-2.07l-4.68-3s-2.52-2-3.4-1.69-1.24,1.31-.61,2.56a21.63,21.63,0,0,0,1.86,3.16,17.44,17.44,0,0,0,3.11,2.49L76.79,230l.28,1a2.08,2.08,0,0,1-1.55,1.62,36.18,36.18,0,0,1-5.58.79c-.49,0-4.82-.78-6.33-1s-7.13-.46-7.13-.46a21.18,21.18,0,0,0-3.31.8c-.25.24-.87,1-.6,1.63a3.8,3.8,0,0,0,1.16,1.19l2.46.16,2.11-.06,2.8.37,4,.81,2.25.5,1.24.71.15.73-1.3.36s-4.18,0-5.25-.09-6.08.6-6.08.6l-4.68.87s-1.15.84-1.34,1.36-.63,1.71.36,2a16.34,16.34,0,0,0,3.35.24H58.3l4.5.32,5.35.48.57.38-4.3,1.1-4.7,1-4.34.4s-2.4.38-2.68,1.12a1.38,1.38,0,0,0,.4,1.67,14.09,14.09,0,0,0,2.36.88c.32,0,3.61-.26,3.61-.26l5.17.07s4.32-.59,5-.69a9.86,9.86,0,0,1,2.06.09s.56.55-.44,1.44-5,3.28-5,3.28L61.59,257s-1.84.92-2,1.36.35,1.57.35,1.57a2.5,2.5,0,0,0,2,.39c1.18-.24,8.59-3.3,8.59-3.3S73.29,256,75,255.41s7.88-1.37,8.38-1.6a22.67,22.67,0,0,0,4.59-2,9.83,9.83,0,0,0,3.88-4.38,11.38,11.38,0,0,0,.79-4.44s.9-4.73-.07-7.12" transform="translate(-20.94 -81)"/><path class="cls-7" d="M154,242.6a11.59,11.59,0,0,0,1.56-3.77,44.81,44.81,0,0,0,.85-5.9s.13-3.31.13-4.35-.25-4.69-.25-4.69l.34-5.58s.54-3.21-.19-3.82-1.74-.45-2.52.71a21.92,21.92,0,0,0-1.83,3.17,17.4,17.4,0,0,0-.65,3.95l0,3.53-.68.71a2.06,2.06,0,0,1-2.16-.59,36.67,36.67,0,0,1-3.4-4.51c-.23-.45-1.67-4.63-2.21-6.07s-3.06-6.5-3.06-6.5a22,22,0,0,0-2.3-2.52c-.34-.11-1.32-.28-1.71.26a3.77,3.77,0,0,0-.47,1.6l1.06,2.24,1.08,1.83,1,2.65,1.23,3.89.66,2.22v1.45L140,223l-.95-1s-2-3.69-2.47-4.66-3.48-5.07-3.48-5.07l-3-3.69a5.21,5.21,0,0,0-1.83-.52c-.55.09-1.79.28-1.56,1.28a17.42,17.42,0,0,0,1.43,3.07l2.2,4,1.91,4.11,2.19,4.95,0,.68-3.05-3.24-3.11-3.68-2.47-3.63s-1.49-1.93-2.26-1.81a1.37,1.37,0,0,0-1.26,1.16,13.92,13.92,0,0,0,.39,2.51c.12.3,2,3,2,3L127,225.1s2.61,3.52,3,4a10.68,10.68,0,0,1,.92,1.86s-.2.75-1.46.31a58.17,58.17,0,0,1-5.26-2.79l-3.57-2.89s-1.69-1.18-2.16-1.1-1.19,1.06-1.19,1.06a2.56,2.56,0,0,0,.61,1.91c.78.92,7,6,7,6s2.3,2,3.6,3.2,5,6.27,5.47,6.6a22.87,22.87,0,0,0,4,3.07,9.76,9.76,0,0,0,5.69,1.28,11.13,11.13,0,0,0,4.23-1.47s4.54-1.51,6.14-3.52" transform="translate(-20.94 -81)"/><path class="cls-7" d="M270.84,233.33a11.2,11.2,0,0,0,3.75,1.56,43.64,43.64,0,0,0,5.86.82s3.29.11,4.32.1,4.65-.27,4.65-.27l5.55.31s3.19.52,3.79-.22.43-1.75-.73-2.53a22.2,22.2,0,0,0-3.15-1.82,17,17,0,0,0-3.93-.64h-3.5l-.71-.69a2.09,2.09,0,0,1,.57-2.18,36.27,36.27,0,0,1,4.47-3.45c.44-.23,4.58-1.71,6-2.26s6.43-3.12,6.43-3.12a21.48,21.48,0,0,0,2.49-2.33c.11-.34.27-1.33-.27-1.72a3.7,3.7,0,0,0-1.59-.47l-2.22,1.08-1.81,1.1-2.62,1.06-3.86,1.27-2.2.68h-1.43l-.49-.56,1-1s3.66-2,4.61-2.51,5-3.54,5-3.54l3.65-3.08a5.33,5.33,0,0,0,.51-1.85c-.09-.54-.29-1.79-1.29-1.55a17,17,0,0,0-3,1.45l-3.94,2.24-4.07,1.95-4.9,2.23-.68-.05,3.21-3.08,3.63-3.16,3.58-2.5s1.91-1.52,1.79-2.3a1.38,1.38,0,0,0-1.16-1.26,13.36,13.36,0,0,0-2.48.41c-.3.13-3,2-3,2l-4.53,2.5s-3.48,2.65-4,3.05a10.17,10.17,0,0,1-1.84.94s-.74-.2-.31-1.47a57.44,57.44,0,0,1,2.73-5.32l2.85-3.61s1.16-1.71,1.09-2.18-1.07-1.19-1.07-1.19a2.48,2.48,0,0,0-1.89.63c-.91.78-5.87,7.12-5.87,7.12s-1.94,2.32-3.16,3.64-6.19,5.1-6.52,5.55a22.65,22.65,0,0,0-3,4,9.86,9.86,0,0,0-1.24,5.73,11.34,11.34,0,0,0,1.48,4.26s1.52,4.56,3.53,6.16" transform="translate(-20.94 -81)"/><path class="cls-6" d="M194.32,217.4a11.49,11.49,0,0,0,2.35-3.33,44.94,44.94,0,0,0,2.12-5.57s.85-3.19,1.08-4.21.79-4.63.79-4.63l1.56-5.37s1.23-3,.65-3.76-1.6-.83-2.61.13a22.07,22.07,0,0,0-2.48,2.69,17.68,17.68,0,0,0-1.51,3.7l-.79,3.44-.82.54a2.07,2.07,0,0,1-2-1.05,36.24,36.24,0,0,1-2.32-5.17c-.13-.48-.61-4.88-.82-6.4s-1.56-7-1.56-7a22.66,22.66,0,0,0-1.69-3c-.3-.18-1.22-.56-1.73-.12a3.78,3.78,0,0,0-.8,1.45l.54,2.42.64,2,.44,2.81.35,4.08.16,2.31-.34,1.4-.65.36-.71-1.17s-1.14-4-1.38-5.09-2.29-5.72-2.29-5.72l-2.14-4.28a5.24,5.24,0,0,0-1.67-.91c-.55,0-1.81-.13-1.8.9a17.23,17.23,0,0,0,.72,3.31l1.27,4.38,1,4.43,1,5.31-.21.66-2.25-3.85-2.23-4.28-1.61-4.08s-1-2.22-1.81-2.27a1.35,1.35,0,0,0-1.48.85,13.33,13.33,0,0,0-.17,2.53c0,.32,1.26,3.42,1.26,3.42l1.39,5s1.77,4,2,4.59a10,10,0,0,1,.49,2s-.36.68-1.49,0a58,58,0,0,1-4.52-3.89l-2.84-3.61s-1.4-1.53-1.87-1.56-1.39.77-1.39.77a2.53,2.53,0,0,0,.18,2C163,195.67,168,202,168,202s1.8,2.43,2.8,3.93,3.52,7.23,3.88,7.65a23.68,23.68,0,0,0,3.2,3.88,9.73,9.73,0,0,0,5.27,2.51,11.11,11.11,0,0,0,4.44-.48s4.76-.46,6.77-2.07" transform="translate(-20.94 -81)"/><path class="cls-8" d="M150.53,189.25a11.3,11.3,0,0,0,2.12-3.48,46.19,46.19,0,0,0,1.73-5.7s.63-3.25.78-4.28.48-4.67.48-4.67l1.18-5.47s1-3.09.39-3.8-1.65-.71-2.6.32a22.32,22.32,0,0,0-2.29,2.85,18,18,0,0,0-1.24,3.8l-.55,3.48-.79.6a2,2,0,0,1-2-.91,37,37,0,0,1-2.68-5c-.15-.48-.94-4.83-1.25-6.34s-2.05-6.89-2.05-6.89a22.7,22.7,0,0,0-1.88-2.85c-.32-.16-1.26-.48-1.73,0a3.68,3.68,0,0,0-.71,1.5l.71,2.38.78,2,.63,2.77.63,4,.31,2.3-.23,1.42-.63.4-.79-1.11s-1.41-4-1.73-5-2.67-5.54-2.67-5.54L132,152a5.12,5.12,0,0,0-1.73-.79c-.55,0-1.8,0-1.73,1a17,17,0,0,0,1,3.24l1.57,4.28,1.26,4.36,1.41,5.22-.15.67L131,166.29l-2.52-4.12-1.88-4s-1.18-2.14-2-2.14a1.35,1.35,0,0,0-1.41,1,13.34,13.34,0,0,0,0,2.53c.08.32,1.49,3.33,1.49,3.33l1.73,4.91s2,3.88,2.36,4.44a10.66,10.66,0,0,1,.63,2s-.32.71-1.5.07a57.19,57.19,0,0,1-4.77-3.56l-3.09-3.41s-1.49-1.42-2-1.42-1.34.87-1.34.87a2.54,2.54,0,0,0,.32,2c.62,1,6,7,6,7s2,2.3,3.06,3.72,4,7,4.41,7.37a22.32,22.32,0,0,0,3.46,3.64,9.69,9.69,0,0,0,5.42,2.14,11.1,11.1,0,0,0,4.4-.79s4.72-.79,6.61-2.54" transform="translate(-20.94 -81)"/><path class="cls-9" d="M227.38,214.86a11.47,11.47,0,0,0,3.88-1.2,44.81,44.81,0,0,0,5-3.12s2.6-2,3.4-2.69,3.42-3.19,3.42-3.19l4.47-3.31s2.79-1.64,2.79-2.59-.77-1.64-2.15-1.5a21.3,21.3,0,0,0-3.6.62,17.38,17.38,0,0,0-3.42,2l-2.7,2.25-1-.08a2.09,2.09,0,0,1-.94-2,37.27,37.27,0,0,1,1.27-5.52c.19-.46,2.46-4.25,3.22-5.59s3-6.53,3-6.53a22.6,22.6,0,0,0,.46-3.4c-.13-.33-.63-1.19-1.3-1.15a3.71,3.71,0,0,0-1.51.66l-1,2.25-.71,2-1.35,2.5-2.18,3.45-1.27,1.93-1.11.91-.74-.12.14-1.36s1.54-3.91,2-4.89,1.63-5.94,1.63-5.94l.88-4.71a5.3,5.3,0,0,0-.78-1.75c-.41-.37-1.36-1.21-2-.38a16.89,16.89,0,0,0-1.43,3.06l-1.62,4.26-1.92,4.11-2.37,4.86-.55.4.52-4.44.81-4.77,1.19-4.22s.52-2.39-.07-2.92a1.33,1.33,0,0,0-1.68-.22,12.84,12.84,0,0,0-1.67,1.9c-.15.29-1.06,3.49-1.06,3.49l-1.93,4.83s-1,4.28-1.14,4.9a10.43,10.43,0,0,1-.83,1.91s-.7.32-1.17-.94a58.48,58.48,0,0,1-1.24-5.86l-.08-4.61a7.29,7.29,0,0,0-.54-2.38c-.35-.31-1.57-.23-1.57-.23a2.52,2.52,0,0,0-1.07,1.69c-.2,1.19,0,9.26,0,9.26s0,3-.15,4.84-1.56,7.9-1.53,8.46a23.79,23.79,0,0,0,.2,5,9.84,9.84,0,0,0,2.67,5.22,11.1,11.1,0,0,0,3.82,2.34s4.06,2.55,6.62,2.5" transform="translate(-20.94 -81)"/><path class="cls-10" d="M217.67,154.35a11.74,11.74,0,0,1-1.95-3.49,47.45,47.45,0,0,1-1.59-5.7s-.58-3.25-.73-4.28-.43-4.67-.43-4.67l-1.09-5.46s-.94-3.09-.36-3.81,1.52-.71,2.39.32a21.64,21.64,0,0,1,2.11,2.85,18.69,18.69,0,0,1,1.15,3.8l.5,3.49.73.59a1.81,1.81,0,0,0,1.88-.91,36.58,36.58,0,0,0,2.46-5c.15-.47.87-4.83,1.16-6.33s1.89-6.89,1.89-6.89a23.69,23.69,0,0,1,1.73-2.86c.29-.15,1.16-.47,1.6,0a4.09,4.09,0,0,1,.65,1.51l-.65,2.38-.73,2-.58,2.77-.57,4L227,131l.21,1.43.58.4.73-1.11s1.3-4,1.59-5,2.46-5.55,2.46-5.55l2.25-4.12a4.5,4.5,0,0,1,1.59-.79c.51,0,1.67,0,1.6,1a19,19,0,0,1-.87,3.25l-1.45,4.28-1.16,4.35-1.31,5.23.15.67,2.32-3.68,2.32-4.12,1.73-4s1.09-2.14,1.81-2.14a1.27,1.27,0,0,1,1.31,1,15.35,15.35,0,0,1,0,2.54c-.07.31-1.38,3.32-1.38,3.32l-1.59,4.91s-1.88,3.89-2.17,4.44a10.93,10.93,0,0,0-.58,2s.29.71,1.37.08a53.08,53.08,0,0,0,4.4-3.56l2.84-3.41s1.38-1.43,1.82-1.43,1.23.88,1.23.88a2.72,2.72,0,0,1-.29,2c-.58,1-5.58,7-5.58,7s-1.81,2.29-2.82,3.72-3.7,7-4.06,7.36a21.66,21.66,0,0,1-3.19,3.65,8.58,8.58,0,0,1-5,2.14,9.65,9.65,0,0,1-4.05-.8s-4.35-.79-6.09-2.53" transform="translate(-20.94 -81)"/><path class="cls-9" d="M141.34,259a11.27,11.27,0,0,0-3.83-1.35,44.5,44.5,0,0,0-5.9-.49s-3.28.07-4.32.13-4.63.53-4.63.53h-5.55s-3.21-.35-3.77.42-.34,1.78.86,2.49a21.21,21.21,0,0,0,3.25,1.65,17,17,0,0,0,4,.42l3.5-.19.74.64a2.1,2.1,0,0,1-.45,2.21,37,37,0,0,1-4.27,3.69c-.43.25-4.49,1.95-5.88,2.58s-6.25,3.48-6.25,3.48a21.78,21.78,0,0,0-2.37,2.46c-.08.34-.19,1.34.37,1.7a3.83,3.83,0,0,0,1.61.38l2.15-1.2,1.76-1.2,2.55-1.2,3.79-1.48,2.16-.8,1.43-.07.52.54-.91,1s-3.54,2.23-4.47,2.76-4.81,3.81-4.81,3.81l-3.48,3.27a5.13,5.13,0,0,0-.4,1.87c.11.54.38,1.78,1.36,1.49a16.82,16.82,0,0,0,3-1.62l3.82-2.46,4-2.16,4.77-2.5h.68l-3,3.26-3.46,3.35-3.44,2.7s-1.82,1.61-1.65,2.38a1.36,1.36,0,0,0,1.22,1.2,14.7,14.7,0,0,0,2.46-.54c.29-.15,2.9-2.18,2.9-2.18l4.4-2.74s3.33-2.84,3.8-3.27a10.44,10.44,0,0,1,1.79-1s.76.15.39,1.45a57.49,57.49,0,0,1-2.44,5.46l-2.65,3.76s-1.06,1.77-1,2.24,1.12,1.13,1.12,1.13a2.54,2.54,0,0,0,1.86-.73c.86-.84,5.47-7.44,5.47-7.44s1.82-2.42,3-3.81,5.91-5.43,6.22-5.9a23.19,23.19,0,0,0,2.8-4.18,9.89,9.89,0,0,0,.92-5.79,11.34,11.34,0,0,0-1.7-4.17s-1.77-4.47-3.86-6" transform="translate(-20.94 -81)"/><path class="cls-11" d="M84.94,208.59a11.2,11.2,0,0,1-4.09-.13,43.17,43.17,0,0,1-5.69-1.72s-3-1.28-4-1.72-4.11-2.23-4.11-2.23l-5.17-2s-3.13-.86-3.35-1.8.38-1.82,1.77-2.06a22.44,22.44,0,0,1,3.68-.37,16.91,16.91,0,0,1,3.84,1.06L71,199.06l1-.35a2.2,2.2,0,0,0,.44-2.27,36,36,0,0,0-2.54-5.11c-.3-.4-3.42-3.53-4.47-4.65s-4.47-5.63-4.47-5.63a21.5,21.5,0,0,1-1.24-3.23c0-.36.34-1.35,1-1.49a3.72,3.72,0,0,1,1.65.23l1.54,1.95,1.17,1.79L67,182.4l3,2.81,1.7,1.57,1.31.59.69-.32-.45-1.3s-2.43-3.44-3.1-4.29-3-5.43-3-5.43l-2-4.41a5.46,5.46,0,0,1,.35-1.94c.32-.47,1-1.56,1.85-.91a16.79,16.79,0,0,1,2.12,2.64l2.6,3.76,2.84,3.53,3.47,4.16.64.24-1.56-4.24-1.91-4.48-2.16-3.85s-1.07-2.22-.61-2.9a1.39,1.39,0,0,1,1.6-.68,12.37,12.37,0,0,1,2.08,1.42c.22.25,1.87,3.16,1.87,3.16l3,4.25s2,3.94,2.27,4.53A10,10,0,0,0,84.85,182s.77.13.93-1.24a59.7,59.7,0,0,0-.15-6.12l-1-4.58a7.25,7.25,0,0,1,0-2.49c.27-.41,1.49-.66,1.49-.66a2.41,2.41,0,0,1,1.44,1.38c.48,1.12,2.2,9.14,2.2,9.14s.74,3,1.27,4.73,3.39,7.38,3.49,7.94a23.39,23.39,0,0,1,1,5,10.54,10.54,0,0,1-1.4,5.88,12.2,12.2,0,0,1-3.21,3.35s-3.4,3.62-5.93,4.27" transform="translate(-20.94 -81)"/><path class="cls-11" d="M264.74,187.37a11.14,11.14,0,0,0,4,.39,44.52,44.52,0,0,0,5.84-.95s3.17-.86,4.16-1.17,4.37-1.63,4.37-1.63l5.39-1.34s3.2-.44,3.56-1.32-.09-1.81-1.42-2.21a20.81,20.81,0,0,0-3.55-.81,17.42,17.42,0,0,0-3.94.54l-3.35,1-.87-.45a2.08,2.08,0,0,1-.09-2.25,34.68,34.68,0,0,1,3.27-4.61c.35-.36,3.89-3,5.09-3.93s5.24-4.89,5.24-4.89a21.56,21.56,0,0,0,1.71-3c0-.35-.13-1.35-.76-1.56a3.71,3.71,0,0,0-1.65,0L290,161l-1.42,1.58-2.19,1.79L283,166.69,281.13,168l-1.38.42-.63-.4.65-1.2s2.9-3,3.68-3.76,3.76-4.86,3.76-4.86l2.6-4a5,5,0,0,0-.06-1.91c-.24-.5-.79-1.63-1.67-1.11a16.41,16.41,0,0,0-2.48,2.28l-3.12,3.31-3.33,3.06-4,3.58-.66.15,2.17-3.9,2.56-4.09,2.7-3.45s1.39-2,1-2.72a1.35,1.35,0,0,0-1.47-.86,13.6,13.6,0,0,0-2.26,1.12c-.25.21-2.3,2.82-2.3,2.82l-3.62,3.72s-2.56,3.56-2.91,4.09a10.4,10.4,0,0,1-1.49,1.44s-.77,0-.73-1.32,1.07-5.89,1.07-5.89l1.68-4.29a7.33,7.33,0,0,0,.41-2.4c-.21-.43-1.37-.83-1.37-.83a2.52,2.52,0,0,0-1.63,1.16c-.64,1-3.54,8.54-3.54,8.54s-1.18,2.79-2,4.42-4.44,6.69-4.62,7.22a23.47,23.47,0,0,0-1.73,4.73,10,10,0,0,0,.48,5.85,11.43,11.43,0,0,0,2.65,3.64s2.78,3.91,5.17,4.85" transform="translate(-20.94 -81)"/><path class="cls-12" d="M193.44,251.43a11.61,11.61,0,0,1,.51-4.06,44.07,44.07,0,0,1,2.18-5.54s1.52-2.93,2-3.84,2.53-3.94,2.53-3.94l2.46-5s1.12-3.06,2.05-3.22,1.73.48,1.83,1.88a21.5,21.5,0,0,1,0,3.67,17.81,17.81,0,0,1-1.38,3.75L204,238.19l.24.95a2.06,2.06,0,0,0,2.16.58,37.29,37.29,0,0,0,5.18-2.22c.42-.27,3.73-3.18,4.91-4.16s5.86-4.1,5.86-4.1a22.56,22.56,0,0,1,3.24-1c.35.08,1.28.42,1.35,1.09a3.72,3.72,0,0,1-.38,1.62l-2,1.41-1.84,1.05-2.21,1.77-3,2.76-1.67,1.6-.7,1.26.25.71,1.3-.38s3.56-2.2,4.44-2.81,5.52-2.65,5.52-2.65L231,234a5.15,5.15,0,0,1,1.84.46c.43.35,1.41,1.14.71,1.9a17.18,17.18,0,0,1-2.75,1.94L227,240.6l-3.68,2.61-4.34,3.2-.29.62,4.24-1.29,4.52-1.64,3.92-1.91s2.25-.93,2.86-.43a1.38,1.38,0,0,1,.52,1.63,14,14,0,0,1-1.58,2c-.25.2-3.22,1.66-3.22,1.66l-4.4,2.75s-4,1.74-4.58,2a10.57,10.57,0,0,0-1.72,1.15s-.2.76,1.11,1a57,57,0,0,0,5.94.22l4.52-.72s2.05-.18,2.41.12.51,1.52.51,1.52a2.53,2.53,0,0,1-1.48,1.35c-1.12.41-9,1.64-9,1.64s-3,.56-4.7,1-7.45,2.92-8,3a22.48,22.48,0,0,1-4.95.67,9.71,9.71,0,0,1-5.56-1.74,11.35,11.35,0,0,1-2.95-3.38s-3.19-3.59-3.58-6.13" transform="translate(-20.94 -81)"/><path class="cls-12" d="M176.28,168.5a11.38,11.38,0,0,1-3.46-2,46.27,46.27,0,0,1-4.21-4.17s-2.1-2.54-2.73-3.36-2.66-3.86-2.66-3.86l-3.63-4.22s-2.35-2.21-2.17-3.13,1-1.4,2.33-.94a20.83,20.83,0,0,1,3.29,1.41,17.87,17.87,0,0,1,2.88,2.73l2.15,2.78,1,.15a1.94,1.94,0,0,0,1.27-1.76,38.05,38.05,0,0,0-.19-5.61c-.09-.49-1.54-4.66-2-6.12s-1.63-7-1.63-7a22.08,22.08,0,0,1,.2-3.38c.19-.29.82-1,1.45-.81a3.88,3.88,0,0,1,1.32,1l.56,2.4.3,2.1.81,2.72,1.43,3.82.85,2.16.89,1.13.72.05.12-1.34s-.74-4.12-1-5.17-.45-6.1-.45-6.1l0-4.74a4.93,4.93,0,0,1,1.07-1.51c.46-.25,1.51-.85,1.94.09a18,18,0,0,1,.78,3.28l.76,4.47,1.06,4.4,1.34,5.23.46.5.32-4.39.11-4.78-.34-4.34s0-2.43.61-2.8a1.29,1.29,0,0,1,1.64.17,14.26,14.26,0,0,1,1.23,2.21c.09.31.36,3.61.36,3.61l.93,5.1s.17,4.35.18,5a10.48,10.48,0,0,0,.43,2s.61.47,1.29-.64a56.86,56.86,0,0,0,2.27-5.36l.93-4.42s.56-1.95,1-2.17,1.54.13,1.54.13a2.65,2.65,0,0,1,.7,1.88c0,1.19-1.69,8.93-1.69,8.93s-.53,2.93-.76,4.69,0,8-.12,8.5a22.27,22.27,0,0,1-1.13,4.81,9.13,9.13,0,0,1-3.5,4.42A10.2,10.2,0,0,1,183,167.6s-4.33,1.53-6.75.9" transform="translate(-20.94 -81)"/><path class="cls-10" d="M259.65,271.31a11.6,11.6,0,0,0,1,4,43.9,43.9,0,0,0,2.83,5.24s1.86,2.72,2.48,3.56,3,3.61,3,3.61l3,4.68s1.48,2.89,2.42,2.94,1.66-.69,1.59-2.09a21.14,21.14,0,0,0-.41-3.64,17.56,17.56,0,0,0-1.82-3.56l-2.09-2.84.13-1a2.06,2.06,0,0,1,2.08-.83,36.15,36.15,0,0,1,5.41,1.57c.44.22,4.08,2.71,5.37,3.53s6.31,3.36,6.31,3.36a22.59,22.59,0,0,0,3.34.64c.33-.12,1.22-.57,1.21-1.25a3.73,3.73,0,0,0-.57-1.56l-2.18-1.15-1.95-.82-2.4-1.49-3.31-2.38-1.84-1.38-.85-1.17.16-.73,1.34.21s3.79,1.76,4.74,2.25,5.8,2,5.8,2l4.63,1.13a5,5,0,0,0,1.77-.69c.39-.39,1.27-1.3.48-2a16.45,16.45,0,0,0-3-1.6L294.24,278l-4-2.15-4.69-2.64-.37-.58,4.37.77,4.68,1.07,4.13,1.42s2.34.65,2.89.08a1.37,1.37,0,0,0,.32-1.68,13.66,13.66,0,0,0-1.8-1.78c-.28-.16-3.4-1.25-3.4-1.25l-4.69-2.2s-4.18-1.24-4.8-1.41a10.19,10.19,0,0,1-1.84-.93s-.28-.73,1-1.13a56.18,56.18,0,0,1,5.87-.94l4.57.17s2.06-.08,2.39-.42.32-1.57.32-1.57a2.49,2.49,0,0,0-1.62-1.16c-1.17-.27-9.18-.53-9.18-.53s-3-.19-4.79-.4-7.74-2-8.3-2a21.8,21.8,0,0,0-5-.06,9.71,9.71,0,0,0-5.32,2.4,11.36,11.36,0,0,0-2.52,3.72s-2.74,3.95-2.83,6.52" transform="translate(-20.94 -81)"/></g></g></g><g id="Calque_2" data-name="Calque 2"><g class="cls-13"><g class="cls-13"><path d="M333.47,365.12A104.8,104.8,0,0,0,335,377.83c1.17,5.75,5.44,19.51,5.06,20.9s-3.87,5.4-3.3,6.45.57,3.48,1.93,3.48,8.56-4.18,10.5-5.75,1.56-10.1,2.73-14.1a69,69,0,0,1,4.27-9.93s2.73,2.44,4.67,9.4,1.36,10.28,2.92,12.37a22.26,22.26,0,0,0,4.86,5.05,12.32,12.32,0,0,0,6,1.74c1.16-.17,2.91-1.91,2.91-1.91a17.76,17.76,0,0,1-2.91-6.8c-.78-4-1.36-7.49-1-9.92a111.76,111.76,0,0,0,1.17-12.89c0-3.66-.39-12.2-1.17-13.24a18.53,18.53,0,0,1-1.55-4.4Z" transform="translate(-20.94 -81)"/><path class="cls-14" d="M315.39,343.17s-6.61-1.74-7.39-.87-.39,2.79,1.95,3.83,7.19,0,7.19,0Z" transform="translate(-20.94 -81)"/><path class="cls-14" d="M381.89,329.89s3.89-1.45,5.25-.79,1.75,1.72,0,3a14.24,14.24,0,0,1-4.08,2Z" transform="translate(-20.94 -81)"/><path class="cls-15" d="M468,330.28a30.56,30.56,0,0,0-4.28,2.08c-1.16.83-2.33,1.25,0,2.08s6,0,6,0Z" transform="translate(-20.94 -81)"/><path class="cls-15" d="M525.2,324.36l1,4.57s5.44-.09,6.22-1.42,2-2.39,0-2.39-7.19-.76-7.19-.76" transform="translate(-20.94 -81)"/><path class="cls-9" d="M482.42,373.3a151.11,151.11,0,0,1,0,17.07c-.58,7.14-1.17,10.8-1,12.89s-1.43,3.31,1.23,2.44,5.18-6.62,6.35-9.75,3.89-12.48,3.89-12.48l1.36-9Z" transform="translate(-20.94 -81)"/><path class="cls-9" d="M504.39,374.7s2.14,10,3.5,14.94,1.75,11.36,3.31,13.1a19.39,19.39,0,0,0,4.28,3.25l1-14.05-1.17-23.17Z" transform="translate(-20.94 -81)"/><path class="cls-15" d="M489.29,305s.9,2.79,0,3.66a10.33,10.33,0,0,1-3.08,1.57L485,311.47s.08,2.61,4.74,4.7,11.71-2.26,11.71-2.26l1.63-4-4.52-1.57-2.17-4.18Z" transform="translate(-20.94 -81)"/><path class="cls-16" d="M394.72,327.62s-5.63-1.41-6.41-1-.2,2.15,1.36,3a43.42,43.42,0,0,0,4.08,1.88Z" transform="translate(-20.94 -81)"/><path class="cls-16" d="M454.61,334.11l1.95,4.36s3.89-2.27,4.66-3a.9.9,0,0,0,0-1.4,5,5,0,0,0-3.13-.87,15.3,15.3,0,0,0-3.48.87" transform="translate(-20.94 -81)"/><path class="cls-17" d="M353.89,312.7a20.49,20.49,0,0,0,4.86-.88" transform="translate(-20.94 -81)"/><path class="cls-17" d="M345.72,296.49a3.85,3.85,0,0,1,4.22-.76" transform="translate(-20.94 -81)"/><path class="cls-17" d="M359.72,293.76s1.82-1.45,3.25-.58" transform="translate(-20.94 -81)"/><path class="cls-17" d="M418.06,324.36s3.5-3.37,6,.4" transform="translate(-20.94 -81)"/><path class="cls-17" d="M430.7,325.58s4.27-2.89,6.22,1.43" transform="translate(-20.94 -81)"/><path class="cls-18" d="M422.53,329.63s-1,2.18,0,3.59,4.31,1.59,5.27,1.59,3.09-2.22,2.9-3.29-8.17-1.89-8.17-1.89" transform="translate(-20.94 -81)"/><path class="cls-17" d="M478.73,292.56s1-4.86,6.22-2" transform="translate(-20.94 -81)"/><path class="cls-17" d="M493.11,290s1-6.27,6.23-1.56" transform="translate(-20.94 -81)"/><path class="cls-18" d="M487.09,296.49s0,4.41,1.94,5.17,6.61-.64,6.81-1.34-.78-4.59-.78-4.59Z" transform="translate(-20.94 -81)"/></g><g class="cls-13"><path class="cls-10" d="M345.14,318.09s1.95,2.44,0,3.13-5.05,1-7,3.49a133.33,133.33,0,0,1-11.67,11.84c-2.91,2.44-9.52,6.27-10.89,6.27s-.77.7,0,2.61,3.5,4.18,3.5,4.18,13.62-4.7,16.14-7.14-1.36,4.36-2.14,9.41a115.48,115.48,0,0,0-.77,13.41l.39,3.66s15.36,1.91,22.94.87,18.47-7,18.47-7-3.69-12.54-5.25-16.2-4.08-8.53-4.08-8.53a35.88,35.88,0,0,0,10.31-.35c4.47-1,9.13-3.48,9.91-4.53s-2.53-4.35-2.53-4.35a20.48,20.48,0,0,1-9.13.34c-5.64-.87-11.48-5.92-12.45-6.61s-7.39-2.44-7.39-2.44l-.58-2.09Z" transform="translate(-20.94 -81)"/><path class="cls-6" d="M393,331.67a17.05,17.05,0,0,1,8.56,5.4c3.31,4.18,4.47,3.8,4.47,7a88.22,88.22,0,0,1-1.36,14.17,51.83,51.83,0,0,0-.58,14.85,177,177,0,0,0,3.3,18.46,38.12,38.12,0,0,1,1.17,8.89s0,5.22,1.17,5.92,3.89-.87,5.05-3.83,1.17-8.89,2.72-12.89,6.62-11.85,6.62-11.85a34.46,34.46,0,0,1,3.88,8.54c1.17,4.35,1.17,11.14,1.56,13.23s-.39,4.71,1.17,6.1,1.55,3,4.66-2.61,4.86-7.32,6-13.07,2.53-10.27,2.53-16.72A89.49,89.49,0,0,0,442.75,359c-.39-2.26-1.94-6.79-1.16-8.71s1.36-3.69,6.22-6.2a108.47,108.47,0,0,0,9.72-5.82l-1.36-4.53s-11.86,1.57-15.17,2.62-9.91,2.61-13.61,1.39S413,332.89,413,332.89l-3.5-2.78a55.88,55.88,0,0,0-8.75-2.79,25.34,25.34,0,0,0-7.78,0Z" transform="translate(-20.94 -81)"/><path class="cls-8" d="M487.09,309.9a18.08,18.08,0,0,0-5.25,3.31c-2.14,2.09-3.7,6.62-5.06,8.71s-6.61,7.14-7.58,7.49l-2.92,1,2.33,3.84s4.86.69,8.07-1.05l5.16-2.79s-.2,7.49-2.73,12.55-7.19,14.28-7.19,14.28L464.14,367s3.5,3.32,5.64,5.24a12.69,12.69,0,0,0,7.58,3,54.75,54.75,0,0,1,7.59,0c2.72.35,4.28,1.91,8.75,3.48s11.08,1.4,14,0,5.25-3.83,8.36-5.57,7.19-4,8.36-3.83-13.22-39.37-13.22-40.94,10.24,1.22,13.29.7l3-.52-1-4.18s-10.89-5.4-14.2-8.36a74,74,0,0,0-8.36-6.1,16.89,16.89,0,0,0-3.3-1.92s-1,4-4.86,4.88-5.64-.35-5.64-.35Z" transform="translate(-20.94 -81)"/></g><g class="cls-13"><path class="cls-14" d="M365.82,291.55s-.13,2.79,0,5,1.42,4.53,1.55,6.15-.26,8.59-3.5,11.26a50.91,50.91,0,0,1-8.55,5.23s-9.47,0-13.48-1.1-9.21-8-9.21-8l-2.72-4.76v-8.13l6.61-5.11,7.65-6.38,9.33-.93,7.39,1.39L366,290Z" transform="translate(-20.94 -81)"/><path class="cls-16" d="M412.09,319.19s-1.29,4.53-1,6.85.62,5.8,1.28,6.33a16.91,16.91,0,0,0,5.85,3.89c3.11,1.05,7.9,2.32,7.9,2.32s5.71,1.4,10.25-2.2,5.31-7.36,5.31-7.36l1-4.37v-4.18l-.91-3.73-1.94-4.63-4.28-2.44a43.12,43.12,0,0,1-5.19-1.69c-.52-.4-5.12-1.1-5.12-1.1l-4.86,1.1-4.54,1.57L413.91,312Z" transform="translate(-20.94 -81)"/><path class="cls-15" d="M471.85,282.84a38.59,38.59,0,0,0,.78,7.78c.78,2.91,1.95,7.44,3.37,9.06a16.67,16.67,0,0,0,5.32,4.47,18.27,18.27,0,0,0,6.35,1.69s11.28,0,13.22-1.17,4.54-3.48,5.32-5.57S508,293,507.76,291s-1.29-7.08-1.29-7.08l-1.3-4.76-2.2-3.6s-10.24-1.74-10.76-1.74S482.48,275,482,275s-10.12,7.89-10.12,7.89" transform="translate(-20.94 -81)"/></g><g class="cls-13"><path class="cls-15" d="M474.06,292.6s-2.34-.35-2.85,1-1,3.37.77,4.53a4.93,4.93,0,0,0,3.76.58v-3Z" transform="translate(-20.94 -81)"/><path class="cls-15" d="M506.08,287.61a2.91,2.91,0,0,1,2.59,0c1.3.69,2.72,1.51,2.59,2.43s-.65,2.56-1.68,3a11.65,11.65,0,0,1-2.47.7Z" transform="translate(-20.94 -81)"/><path class="cls-16" d="M412.74,321.63s-1-.93-1.94-.58a2.91,2.91,0,0,0-1.69,1.51,2.49,2.49,0,0,0,.65,2.67,8.71,8.71,0,0,0,1.95,1.28Z" transform="translate(-20.94 -81)"/><path class="cls-16" d="M441.65,324.76l-.65,4.82s.78.29,1.82-.64a3.14,3.14,0,0,0,1-2.43,8.53,8.53,0,0,0-.77-1.75Z" transform="translate(-20.94 -81)"/><path class="cls-19" d="M353.22,302.74c.29,2.28-.91,4.28-2.69,4.46s-3.46-1.52-3.75-3.81.92-4.28,2.7-4.47,3.45,1.53,3.74,3.82" transform="translate(-20.94 -81)"/><path class="cls-19" d="M365.54,301.39c.28,2.17-.65,4-2.08,4.19s-2.8-1.5-3.07-3.66.65-4,2.08-4.19,2.8,1.5,3.07,3.66" transform="translate(-20.94 -81)"/><path class="cls-12" d="M356.09,289a20.13,20.13,0,0,1-3.63,3.56,9.19,9.19,0,0,1-3.24,1.2,24.49,24.49,0,0,0,1.3-4.3c0-.93-3.11,3.1-3.11,3.1l-1.3,1.2-.77-2.38L343,295l-.78-3-.77,4.64L340,293.88s-.65,3.77,0,5-3.24-1.54-3.24-1.54.13,4.3.91,5-2.73-.69-2.73-.69l2,3.36s-1.82-4.41-3.24-3.36-2.85,1.62-2.72,3.36,0,2.79,1,3.49a14.54,14.54,0,0,1,2.6,3.25l2.07,2.44,1.56,1.39s-1.82,4.3-2.6,4.53.26-.93.26-2-3.11,0-3.11,0,1.43-2,1.43-3-3.24,1.16-4,.81,1.94-1.86,2.2-2.67-3.5,1-4.28.11,1.56-1.16,2.08-2.32-3.89-.11-5.06-.93,2.73-.11,3.24-.81-3.5-.93-4.27-1.86a17,17,0,0,0-1.56-1.62,3.15,3.15,0,0,0,2.85,0,4.23,4.23,0,0,0,1.69-2.21,3.87,3.87,0,0,0-2.6-.57c-1.16.34-4.14-1.4-4.14-1.4l-1-2.76a2.86,2.86,0,0,0,2.2,1.25,4.57,4.57,0,0,0,3.24-1.25,12.75,12.75,0,0,1-2.2-1.19c-.52-.47,1.69-.23,2.2-.7s1.3-1.28,1.3-1.28a20.7,20.7,0,0,1-2.72-1.27,10.88,10.88,0,0,1-1.17-1.9,6.78,6.78,0,0,0,2.85.74,6.13,6.13,0,0,0,2.21-.74,5.58,5.58,0,0,0,0-3.1c-.52-1.39-1.3-3-1.3-3a1.46,1.46,0,0,1,1.69.82c.64,1.16,1.42.93,2.2.93a12.5,12.5,0,0,0,3-1.05s-2.85-1.28-3.11-2,.52.69,1.81,0,3.12-1.63,3.12-1.63a17.66,17.66,0,0,1-.91-2.67v-1.39s0,.46,1.55,1.27,3.5,1.05,4.28.58,1.3-.58,1.43-1.85,1.81-3.14,1.81-3.14l1.82-1.16s-1.56,1.05-.91,2.21a4.83,4.83,0,0,0,2.33,1.74,11,11,0,0,1,3.37-2.79,38.76,38.76,0,0,1,4.54-1.16S352,276.81,352,277.5a7.45,7.45,0,0,1-.26,1.63,3.32,3.32,0,0,0,2.59.35,17.89,17.89,0,0,1,3.22-.7l2.61-1.16s-1.68,1.51-1.68,2.32a7.29,7.29,0,0,0,.65,2.21s.13.69,1.81.58a10,10,0,0,0,3.63-1.28l1-1v1.85c0,.7.65,2.09,0,2.56a9.85,9.85,0,0,0-1.43,1.39,12.06,12.06,0,0,0,3.11,1.63c1.56.46,2.34,1.39,2.72,1.28s-2.85.34-2.85.34,1.62,2.94,2.89,3.1-2.89,0-2.89,0,1.3,2.13,1.95,2.13-4.93-2.21-5.32-3.48-2.85-2.56-2.85-2.56v3l-2.2-3.37Z" transform="translate(-20.94 -81)"/><path d="M411.58,320.15v-4.33l1.16-1.86v-2.2l1.17-2.32,1-2,1.68-1.16h1.3l1.68-1.51h1.3v-3.13a4.57,4.57,0,0,0,.91,2.2,3.91,3.91,0,0,0,2.59.93,72.57,72.57,0,0,1,8,1c2.2.58,3.5.46,5.18,1.62s3.89,3,4.28,4.07,2.33,3.71,1.94,4.64.52,2.62,0,4a25.5,25.5,0,0,0-.9,3.59l-1.3-2.77v-2l-.65-2.32-.78-1.75-1.29.82-.78-1.28-1.3-1.16-1.16-.57-1.3-1.17-.52.69-1.29-1.39-.78.7-1.69-1.63-1.29.81-1-1.74-1.32,1.16-1.23-1.62-.71,2.2L423,309.44l-.64,1.85-1.17-1.16-.52,1.63-1.3-1.05-.77,1.05-2.08-1.16v2.1l-1-.48.64,2.09a1,1,0,0,0-1.29.47c-.52.81-3.24,5.37-3.24,5.37" transform="translate(-20.94 -81)"/><path class="cls-11" d="M472,292.56a25.47,25.47,0,0,1-2.85-5.26c-.52-1.9-1.29-5.73-1-6.89a10.26,10.26,0,0,0-.06-3s-6.3-.24-7.46.69,3.56-2.55,3.56-2.55l-6.61-2.67,8-.58-2.33-4.3,6.61,2.67.94-4.64s2.07,3.83,2.51,5,4.59-2.55,9-3.37a43.87,43.87,0,0,1,8.29-.69,70.39,70.39,0,0,1,7.26.46c1.69.35.65-3.6,2-4.41a3.36,3.36,0,0,1,2.07-.7,2.35,2.35,0,0,0-.91,2c0,1.39.13,3.36.13,3.36a6.89,6.89,0,0,1,3.37-3.6,28.6,28.6,0,0,1,4.28-1.75s-2.85,3.26-2.59,4.19,1.94.7,4.28.81a5.42,5.42,0,0,1,4,2.09,4.74,4.74,0,0,1,.78,1.75s-2.59-2.21-4.41-1.28-3.24,1.51-3.24,1.51l3.77,1.16-5.19.81a33.77,33.77,0,0,1,1.68,5.69c.13,1.63,0,6.39,0,6.39l-.78,1.39-.9.82s0-4.18-.91-5.11-4.54-3.95-4.54-3.95-.77,2.09-.52,2.55-3-2.67-3-2.67-.39,2.79-.13,3.14-3.24-2.67-3.24-2.67l-.39,3.25-2.33-3-.26,2.44s-2.07-2.56-2.07-3-.39,2.78.13,3.71-2.5-2.32-2.5-2.32l-1.39,3.6a15.61,15.61,0,0,1-1.56-3.13c0-.58-1.42,3.13-1.42,3.13l-1.82-3.13s-.65,3.48-.39,4.06-1.94-3-1.94-3v3.95L475.74,282v2.79l-1.42-1.74s-.26,3.94-.39,5.45a39.54,39.54,0,0,1-.7,4Z" transform="translate(-20.94 -81)"/></g><g class="cls-13"><path class="cls-17" d="M353.89,312.7a20.49,20.49,0,0,0,4.86-.88" transform="translate(-20.94 -81)"/><path class="cls-17" d="M345.72,296.49a3.85,3.85,0,0,1,4.22-.76" transform="translate(-20.94 -81)"/><path class="cls-17" d="M359.72,293.76s1.82-1.45,3.25-.58" transform="translate(-20.94 -81)"/><path class="cls-17" d="M418.06,324.36s3.5-3.37,6,.4" transform="translate(-20.94 -81)"/><path class="cls-17" d="M430.7,325.58s4.27-2.89,6.22,1.43" transform="translate(-20.94 -81)"/><path class="cls-18" d="M422.53,329.63s-1,2.18,0,3.59,4.31,1.59,5.27,1.59,3.09-2.22,2.9-3.29-8.17-1.89-8.17-1.89" transform="translate(-20.94 -81)"/><path class="cls-17" d="M478.73,292.56s1-4.86,6.22-2" transform="translate(-20.94 -81)"/><path class="cls-17" d="M493.11,290s1-6.27,6.23-1.56" transform="translate(-20.94 -81)"/><path class="cls-18" d="M487.09,296.49s0,4.41,1.94,5.17,6.61-.64,6.81-1.34-.78-4.59-.78-4.59Z" transform="translate(-20.94 -81)"/><path class="cls-20" d="M352,302.58c0,.87-.44,1.57-1,1.57s-1-.7-1-1.57.44-1.56,1-1.56,1,.7,1,1.56" transform="translate(-20.94 -81)"/><path class="cls-20" d="M364.59,300.82c0,.86-.37,1.55-.82,1.55s-.8-.69-.8-1.55.36-1.54.8-1.54.82.69.82,1.54" transform="translate(-20.94 -81)"/></g></g></g><g id="Calque_3" data-name="Calque 3"><g class="cls-21"><rect class="cls-6" x="545.56" y="167.2" width="217.55" height="158.02"/><polygon class="cls-6" points="654.33 88.75 545.56 167.2 763.1 167.2 654.33 88.75"/><rect class="cls-6" x="700.26" y="98.94" width="18.46" height="46.39"/><rect class="cls-18" x="570.17" y="196.24" width="72.08" height="71.66"/><rect class="cls-18" x="666.85" y="197" width="72.08" height="71.66"/><rect class="cls-6" x="604.01" y="189.83" width="3.96" height="88.63"/><rect class="cls-6" x="701.57" y="188.32" width="3.96" height="88.63"/><rect class="cls-6" x="554.35" y="230.94" width="103.28" height="3.39"/><rect class="cls-6" x="644" y="230.94" width="103.28" height="3.39"/></g></g></svg>